<svg width="114" height="70" viewBox="0 0 114 70" fill="none" xmlns="http://www.w3.org/2000/svg">
<path d="M71.9414 7.48304H41.3164V62.517H71.9414V7.48304Z" fill="#FF5F00"/>
<path d="M43.2611 35C43.2562 29.6998 44.4573 24.468 46.7733 19.7006C49.0893 14.9333 52.4596 10.7553 56.629 7.48302C51.4658 3.42461 45.2649 0.900743 38.7351 0.199895C32.2053 -0.500954 25.6101 0.649466 19.7032 3.51971C13.7963 6.38996 8.81614 10.8642 5.33191 16.4311C1.84768 21.9979 0 28.4327 0 35C0 41.5673 1.84768 48.0021 5.33191 53.5689C8.81614 59.1358 13.7963 63.61 19.7032 66.4803C25.6101 69.3505 32.2053 70.501 38.7351 69.8001C45.2649 69.0993 51.4658 66.5754 56.629 62.517C52.4596 59.2447 49.0894 55.0667 46.7733 50.2993C44.4573 45.532 43.2563 40.3002 43.2611 35Z" fill="#EB001B"/>
<path d="M113.256 35C113.256 41.5672 111.409 48.002 107.925 53.5688C104.441 59.1357 99.4609 63.6099 93.5542 66.4802C87.6474 69.3505 81.0523 70.5009 74.5225 69.8001C67.9928 69.0993 61.7921 66.5754 56.629 62.517C60.7947 59.2414 64.1624 55.0627 66.478 50.2961C68.7937 45.5295 69.9969 40.2993 69.9969 35C69.9969 29.7007 68.7937 24.4705 66.478 19.7039C64.1624 14.9373 60.7947 10.7586 56.629 7.48302C61.7921 3.4246 67.9928 0.900725 74.5225 0.199886C81.0523 -0.500954 87.6474 0.649516 93.5542 3.51979C99.4609 6.39007 104.441 10.8643 107.925 16.4312C111.409 21.998 113.256 28.4328 113.256 35Z" fill="#F79E1B"/>
<path d="M109.917 56.6881V55.5613H110.371V55.3318H109.214V55.5613H109.669V56.6881H109.917ZM112.163 56.6881V55.3296H111.809L111.401 56.264L110.993 55.3296H110.638V56.6881H110.888V55.6633L111.271 56.5468H111.531L111.913 55.6611V56.6881H112.163Z" fill="#F79E1B"/>
</svg>
