<svg width="147" height="48" viewBox="0 0 147 48" fill="none" xmlns="http://www.w3.org/2000/svg">
<path d="M72.7284 1.47102L63.0265 46.8223H51.2951L60.9983 1.47102H72.7284ZM122.087 30.7545L128.264 13.7235L131.818 30.7545H122.087ZM135.177 46.8223H146.028L136.559 1.47102H126.543C124.292 1.47102 122.393 2.7801 121.548 4.79826L103.947 46.8223H116.267L118.713 40.0501H133.764L135.177 46.8223ZM104.558 32.0148C104.608 20.045 88.0052 19.3862 88.1201 14.0393C88.1545 12.4102 89.7062 10.6819 93.0952 10.2384C94.7789 10.0188 99.408 9.85085 104.664 12.2695L106.723 2.65235C103.899 1.62748 100.266 0.641357 95.7478 0.641357C84.1526 0.641357 75.991 6.80638 75.9221 15.6341C75.8489 22.1622 81.7484 25.8053 86.1938 27.9756C90.7641 30.199 92.2999 31.6229 92.2798 33.6109C92.2497 36.6554 88.6339 37.9961 85.2608 38.0492C79.3613 38.1425 75.9379 36.4573 73.2092 35.1856L71.0834 45.1228C73.8236 46.3816 78.8833 47.4754 84.1326 47.5314C96.4554 47.5314 104.518 41.4425 104.558 32.0148ZM55.9644 1.47102L36.9569 46.8223H24.5537L15.2007 10.6288C14.6323 8.39967 14.1385 7.58436 12.4117 6.64418C9.59403 5.11548 4.93618 3.67865 0.838135 2.78871L1.11804 1.47102H21.08C23.6236 1.47102 25.913 3.16478 26.49 6.09442L31.4307 32.3392L43.6387 1.47102H55.9644Z" fill="#1434CB"/>
</svg>
