<svg xmlns="http://www.w3.org/2000/svg" width="1443" height="1442" viewBox="0 0 1443 1442" fill="none"><g opacity="0.15">
    <path d="M721.005 1L721.536 592.498V850.292L721.032 1441.47" stroke="white" stroke-width="0.333333" stroke-linecap="round" stroke-linejoin="round"/>
    <path d="M361.376 1441.47L657.093 850.292V592.498L360.439 1" stroke="url(#paint0_linear_1239_2968)" stroke-width="0.333333" stroke-linecap="round" stroke-linejoin="round"/>
    <path d="M1081.57 1L785.986 592.498V850.292L1080.69 1441.47" stroke="url(#paint1_linear_1239_2968)" stroke-width="0.333333" stroke-linecap="round" stroke-linejoin="round"/>
    <path d="M1.30493 1081.72L463.754 850.293V592.496L1.43877 361.734" stroke="white" stroke-width="0.333333" stroke-linecap="round" stroke-linejoin="round"/>
    <path d="M1.30493 852.352L12.6364 850.291V592.497L1.30493 590.442" stroke="white" stroke-width="0.333333" stroke-linecap="round" stroke-linejoin="round"/>
    <path d="M1.30493 865.467L77.0805 850.292V592.498L1.30493 577.363" stroke="white" stroke-width="0.333333" stroke-linecap="round" stroke-linejoin="round"/>
    <path d="M1.30493 881.487L141.525 850.292V592.498L1.30493 561.381" stroke="white" stroke-width="0.333333" stroke-linecap="round" stroke-linejoin="round"/>
    <path d="M1.30493 901.518L205.973 850.292V592.498L1.30493 541.406" stroke="white" stroke-width="0.333333" stroke-linecap="round" stroke-linejoin="round"/>
    <path d="M1.30493 927.262L270.417 850.291V592.497L1.30493 515.722" stroke="white" stroke-width="0.333333" stroke-linecap="round" stroke-linejoin="round"/>
    <path d="M1.30493 961.587L334.861 850.291V592.497L1.30493 481.482" stroke="white" stroke-width="0.333333" stroke-linecap="round" stroke-linejoin="round"/>
    <path d="M1.30493 1009.65L399.312 850.294V592.498L1.30493 433.555" stroke="white" stroke-width="0.333333" stroke-linecap="round" stroke-linejoin="round"/>
    <path d="M1.30493 1201.81L528.198 850.292V592.496L1.30493 241.88" stroke="white" stroke-width="0.333333" stroke-linecap="round" stroke-linejoin="round"/>
    <path d="M1.72428 1441.47L592.649 850.293V592.498L1.30493 2.42578" stroke="url(#paint2_linear_1239_2968)" stroke-width="0.333333" stroke-linecap="round" stroke-linejoin="round"/>
    <path d="M1441.77 852.352L1430.44 850.291V592.497L1441.77 590.442" stroke="white" stroke-width="0.333333" stroke-linecap="round" stroke-linejoin="round"/>
    <path d="M1441.78 865.468L1366 850.293V592.499L1441.78 577.358" stroke="white" stroke-width="0.333333" stroke-linecap="round" stroke-linejoin="round"/>
    <path d="M1441.78 881.501L1301.56 850.293V592.498L1441.78 561.373" stroke="white" stroke-width="0.333333" stroke-linecap="round" stroke-linejoin="round"/>
    <path d="M1441.78 901.54L1237.1 850.294V592.5L1441.78 541.386" stroke="white" stroke-width="0.333333" stroke-linecap="round" stroke-linejoin="round"/>
    <path d="M1441.78 927.297L1172.66 850.293V592.496L1441.78 515.688" stroke="white" stroke-width="0.333333" stroke-linecap="round" stroke-linejoin="round"/>
    <path d="M1441.77 481.425L1108.22 592.496L1108.22 850.292L1441.77 961.65" stroke="white" stroke-width="0.333333" stroke-linecap="round" stroke-linejoin="round"/>
    <path d="M1441.78 433.445L1043.78 592.5L1043.77 850.294L1441.89 1009.8" stroke="white" stroke-width="0.333333" stroke-linecap="round" stroke-linejoin="round"/>
    <path d="M1441.89 361.411L979.333 592.496L979.326 850.291L1441.78 1081.92" stroke="white" stroke-width="0.333333" stroke-linecap="round" stroke-linejoin="round"/>
    <path d="M1441.89 241.4L914.881 592.498V850.295L1441.77 1202.21" stroke="white" stroke-width="0.333333" stroke-linecap="round" stroke-linejoin="round"/>
    <path d="M1441.78 1.37012L850.431 592.498V850.292L1440.34 1441.47" stroke="url(#paint3_linear_1239_2968)" stroke-width="0.333333" stroke-linecap="round" stroke-linejoin="round"/>
    <path d="M1441.77 244.249H1.30493" stroke="white" stroke-width="0.333333" stroke-linecap="round" stroke-linejoin="round"/>
    <path d="M1441.77 477.235H1.30493" stroke="white" stroke-width="0.333333" stroke-linecap="round" stroke-linejoin="round"/>
    <path d="M1441.77 398.384H1.30493" stroke="white" stroke-width="0.333333" stroke-linecap="round" stroke-linejoin="round"/>
    <path d="M1441.77 309.733H1.30493" stroke="white" stroke-width="0.333333" stroke-linecap="round" stroke-linejoin="round"/>
    <path d="M1441.77 592.511H1.30493" stroke="white" stroke-width="0.333333" stroke-linecap="round" stroke-linejoin="round"/>
    <path d="M1441.77 153.972H1.30493" stroke="white" stroke-width="0.333333" stroke-linecap="round" stroke-linejoin="round"/>
    <path d="M1441.77 359.415H1.30493" stroke="white" stroke-width="0.333333" stroke-linecap="round" stroke-linejoin="round"/>
    <path d="M1441.77 429.783H1.30493" stroke="white" stroke-width="0.333333" stroke-linecap="round" stroke-linejoin="round"/>
    <path d="M1441.77 557.307H1.30493" stroke="white" stroke-width="0.333333" stroke-linecap="round" stroke-linejoin="round"/>
    <path d="M1441.77 537.171H1.30493" stroke="white" stroke-width="0.333333" stroke-linecap="round" stroke-linejoin="round"/>
    <path d="M1441.77 525.134H1.30493" stroke="white" stroke-width="0.333333" stroke-linecap="round" stroke-linejoin="round"/>
    <path d="M1441.77 547.824H1.30493" stroke="white" stroke-width="0.333333" stroke-linecap="round" stroke-linejoin="round"/>
    <path d="M1441.77 573.472H1.30493" stroke="white" stroke-width="0.333333" stroke-linecap="round" stroke-linejoin="round"/>
    <path d="M1441.77 565.811H1.30493" stroke="white" stroke-width="0.333333" stroke-linecap="round" stroke-linejoin="round"/>
    <path d="M1441.77 580.412H1.30493" stroke="white" stroke-width="0.333333" stroke-linecap="round" stroke-linejoin="round"/>
    <path d="M1441.77 586.733H1.30493" stroke="white" stroke-width="0.333333" stroke-linecap="round" stroke-linejoin="round"/>
    <path d="M1441.77 21.5474H1.30493" stroke="white" stroke-width="0.333333" stroke-linecap="round" stroke-linejoin="round"/>
    <path d="M1441.77 495.602H1.30493" stroke="white" stroke-width="0.333333" stroke-linecap="round" stroke-linejoin="round"/>
    <path d="M1441.77 455.61H1.30493" stroke="white" stroke-width="0.333333" stroke-linecap="round" stroke-linejoin="round"/>
    <path d="M1441.77 511.399H1.30493" stroke="white" stroke-width="0.333333" stroke-linecap="round" stroke-linejoin="round"/>
    <path d="M1.30493 850.293H1441.77" stroke="white" stroke-width="0.333333" stroke-linecap="round" stroke-linejoin="round"/>
    <path d="M1.30493 785.848H1441.77" stroke="white" stroke-width="0.333333" stroke-linecap="round" stroke-linejoin="round"/>
    <path d="M1.30493 721.406H1441.77" stroke="white" stroke-width="0.333333" stroke-linecap="round" stroke-linejoin="round"/>
    <path d="M1.30493 656.956H1441.77" stroke="white" stroke-width="0.333333" stroke-linecap="round" stroke-linejoin="round"/>
    <path d="M1.30493 592.511H1441.77" stroke="white" stroke-width="0.333333" stroke-linecap="round" stroke-linejoin="round"/>
    <path d="M1441.46 850.293H1.30762" stroke="white" stroke-width="0.333333" stroke-linecap="round" stroke-linejoin="round"/>
    <path d="M1441.77 856.086H1.30493" stroke="white" stroke-width="0.333333" stroke-linecap="round" stroke-linejoin="round"/>
    <path d="M1441.77 862.421H1.30493" stroke="white" stroke-width="0.333333" stroke-linecap="round" stroke-linejoin="round"/>
    <path d="M1441.77 869.387H1.30493" stroke="white" stroke-width="0.333333" stroke-linecap="round" stroke-linejoin="round"/>
    <path d="M1441.77 877.064H1.30493" stroke="white" stroke-width="0.333333" stroke-linecap="round" stroke-linejoin="round"/>
    <path d="M1441.77 885.587H1.30493" stroke="white" stroke-width="0.333333" stroke-linecap="round" stroke-linejoin="round"/>
    <path d="M1441.77 895.097H1.30493" stroke="white" stroke-width="0.333333" stroke-linecap="round" stroke-linejoin="round"/>
    <path d="M1441.77 905.778H1.30493" stroke="white" stroke-width="0.333333" stroke-linecap="round" stroke-linejoin="round"/>
    <path d="M1441.77 917.852H1.30493" stroke="white" stroke-width="0.333333" stroke-linecap="round" stroke-linejoin="round"/>
    <path d="M1441.77 931.616H1.30493" stroke="white" stroke-width="0.333333" stroke-linecap="round" stroke-linejoin="round"/>
    <path d="M1441.77 947.456H1.30493" stroke="white" stroke-width="0.333333" stroke-linecap="round" stroke-linejoin="round"/>
    <path d="M1441.77 965.877H1.30493" stroke="white" stroke-width="0.333333" stroke-linecap="round" stroke-linejoin="round"/>
    <path d="M1441.77 987.556H1.30493" stroke="white" stroke-width="0.333333" stroke-linecap="round" stroke-linejoin="round"/>
    <path d="M1441.77 1013.46H1.30493" stroke="white" stroke-width="0.333333" stroke-linecap="round" stroke-linejoin="round"/>
    <path d="M1441.77 1044.94H1" stroke="white" stroke-width="0.333333" stroke-linecap="round" stroke-linejoin="round"/>
    <path d="M1441.77 1084.01H1.30493" stroke="white" stroke-width="0.333333" stroke-linecap="round" stroke-linejoin="round"/>
    <path d="M1441.77 1133.82H1.30493" stroke="white" stroke-width="0.333333" stroke-linecap="round" stroke-linejoin="round"/>
    <path d="M1441.77 1199.5H1.30493" stroke="white" stroke-width="0.333333" stroke-linecap="round" stroke-linejoin="round"/>
    <path d="M1441.77 1290.03H1.30493" stroke="white" stroke-width="0.333333" stroke-linecap="round" stroke-linejoin="round"/>
    <path d="M1441.77 1422.83H1.30493" stroke="white" stroke-opacity="0.45" stroke-width="0.333333" stroke-linecap="round" stroke-linejoin="round"/>
    </g>
    <defs>
    <linearGradient id="paint0_linear_1239_2968" x1="508.766" y1="1" x2="508.766" y2="1441.47" gradientUnits="userSpaceOnUse">
    <stop offset="0.98" stop-color="white"/>
    <stop offset="1" stop-color="white" stop-opacity="0"/>
    </linearGradient>
    <linearGradient id="paint1_linear_1239_2968" x1="933.779" y1="1" x2="933.779" y2="1441.47" gradientUnits="userSpaceOnUse">
    <stop offset="0.98" stop-color="white"/>
    <stop offset="1" stop-color="white" stop-opacity="0"/>
    </linearGradient>
    <linearGradient id="paint2_linear_1239_2968" x1="296.977" y1="2.42578" x2="296.977" y2="1441.47" gradientUnits="userSpaceOnUse">
    <stop offset="0.98" stop-color="white"/>
    <stop offset="1" stop-color="white" stop-opacity="0"/>
    </linearGradient>
    <linearGradient id="paint3_linear_1239_2968" x1="1146.1" y1="1.37012" x2="1146.1" y2="1441.47" gradientUnits="userSpaceOnUse">
    <stop offset="0.98" stop-color="white"/>
    <stop offset="1" stop-color="white" stop-opacity="0"/>
    </linearGradient>
    </defs>
    </svg>