<svg xmlns="http://www.w3.org/2000/svg" width="100%" height="100%" viewBox="0 0 516 300" fill="none" preserveAspectRatio="xMidYMid meet" aria-hidden="true" role="img">
                        <g clip-path="url(#clip0_850_871)">
                          <g opacity="0.02">
                            <line x1="12.4883" y1="0.000488303" x2="12.4882" y2="780" stroke="currentColor"></line>
                            <line x1="24.4883" y1="0.000488303" x2="24.4882" y2="780" stroke="currentColor"></line>
                            <line x1="36.4883" y1="0.000488303" x2="36.4882" y2="780" stroke="currentColor"></line>
                            <line x1="48.4883" y1="0.000488303" x2="48.4882" y2="780" stroke="currentColor"></line>
                            <line x1="60.4883" y1="0.000488303" x2="60.4882" y2="780" stroke="currentColor"></line>
                            <line x1="72.4883" y1="0.000488303" x2="72.4883" y2="780" stroke="currentColor"></line>
                            <line x1="84.4883" y1="0.000488303" x2="84.4883" y2="780" stroke="currentColor"></line>
                            <line x1="96.4883" y1="0.000488303" x2="96.4883" y2="780" stroke="currentColor"></line>
                            <line x1="108.488" y1="0.000488303" x2="108.488" y2="780" stroke="currentColor"></line>
                            <line x1="120.488" y1="0.000488303" x2="120.488" y2="780" stroke="currentColor"></line>
                            <line x1="132.488" y1="0.000488303" x2="132.488" y2="780" stroke="currentColor"></line>
                            <line x1="144.488" y1="0.000488303" x2="144.488" y2="780" stroke="currentColor"></line>
                            <line x1="156.488" y1="0.000488303" x2="156.488" y2="780" stroke="currentColor"></line>
                            <line x1="168.488" y1="0.000488303" x2="168.488" y2="780" stroke="currentColor"></line>
                            <line x1="180.488" y1="0.000488303" x2="180.488" y2="780" stroke="currentColor"></line>
                            <line x1="192.488" y1="0.000488303" x2="192.488" y2="780" stroke="currentColor"></line>
                            <line x1="204.488" y1="0.000488303" x2="204.488" y2="780" stroke="currentColor"></line>
                            <line x1="216.488" y1="0.000488303" x2="216.488" y2="780" stroke="currentColor"></line>
                            <line x1="228.488" y1="0.000488303" x2="228.488" y2="780" stroke="currentColor"></line>
                            <line x1="240.488" y1="0.000488303" x2="240.488" y2="780" stroke="currentColor"></line>
                            <line x1="252.488" y1="0.000488303" x2="252.488" y2="780" stroke="currentColor"></line>
                            <line x1="264.488" y1="0.000488303" x2="264.488" y2="780" stroke="currentColor"></line>
                            <line x1="276.488" y1="0.000488303" x2="276.488" y2="780" stroke="currentColor"></line>
                            <line x1="288.488" y1="0.000488303" x2="288.488" y2="780" stroke="currentColor"></line>
                            <line x1="300.488" y1="0.000488303" x2="300.488" y2="780" stroke="currentColor"></line>
                            <line x1="312.488" y1="0.000488303" x2="312.488" y2="780" stroke="currentColor"></line>
                            <line x1="324.488" y1="0.000488303" x2="324.488" y2="780" stroke="currentColor"></line>
                            <line x1="336.488" y1="0.000488303" x2="336.488" y2="780" stroke="currentColor"></line>
                            <line x1="348.488" y1="0.000488303" x2="348.488" y2="780" stroke="currentColor"></line>
                            <line x1="360.488" y1="0.000488303" x2="360.488" y2="780" stroke="currentColor"></line>
                            <line x1="372.488" y1="0.000488303" x2="372.488" y2="780" stroke="currentColor"></line>
                            <line x1="384.488" y1="0.000488303" x2="384.488" y2="780" stroke="currentColor"></line>
                            <line x1="396.488" y1="0.000488303" x2="396.488" y2="780" stroke="currentColor"></line>
                            <line x1="408.488" y1="0.000488303" x2="408.488" y2="780" stroke="currentColor"></line>
                            <line x1="420.488" y1="0.000488303" x2="420.488" y2="780" stroke="currentColor"></line>
                            <line x1="432.488" y1="0.000488303" x2="432.488" y2="780" stroke="currentColor"></line>
                            <line x1="444.488" y1="0.000488303" x2="444.488" y2="780" stroke="currentColor"></line>
                            <line x1="456.488" y1="0.000488303" x2="456.488" y2="780" stroke="currentColor"></line>
                            <line x1="468.488" y1="0.000488303" x2="468.488" y2="780" stroke="currentColor"></line>
                            <line x1="480.488" y1="0.000488303" x2="480.488" y2="780" stroke="currentColor"></line>
                            <line x1="492.488" y1="0.000488303" x2="492.488" y2="780" stroke="currentColor"></line>
                            <line x1="504.488" y1="0.000488303" x2="504.488" y2="780" stroke="currentColor"></line>
                            <line x1="516.488" y1="0.000488303" x2="516.488" y2="780" stroke="currentColor"></line>
                          </g>
                          <g opacity="0.02">
                            <line x1="1440" y1="0.500122" x2="-4.37115e-08" y2="0.499996" stroke="currentColor"></line>
                            <line x1="1440" y1="12.5001" x2="-4.37115e-08" y2="12.5" stroke="currentColor"></line>
                            <line x1="1440" y1="24.5001" x2="-4.37115e-08" y2="24.5" stroke="currentColor"></line>
                            <line x1="1440" y1="36.5001" x2="-4.37115e-08" y2="36.5" stroke="currentColor"></line>
                            <line x1="1440" y1="48.4999" x2="-4.37115e-08" y2="48.4998" stroke="currentColor"></line>
                            <line x1="1440" y1="60.4999" x2="-4.37115e-08" y2="60.4998" stroke="currentColor"></line>
                            <line x1="1440" y1="72.5" x2="-4.37115e-08" y2="72.4999" stroke="currentColor"></line>
                            <line x1="1440" y1="84.5" x2="-4.37115e-08" y2="84.4999" stroke="currentColor"></line>
                            <line x1="1440" y1="96.5" x2="-4.37115e-08" y2="96.4999" stroke="currentColor"></line>
                            <line x1="1440" y1="108.5" x2="-4.37115e-08" y2="108.5" stroke="currentColor"></line>
                            <line x1="1440" y1="120.5" x2="-4.37115e-08" y2="120.5" stroke="currentColor"></line>
                            <line x1="1440" y1="132.5" x2="-4.37115e-08" y2="132.5" stroke="currentColor"></line>
                            <line x1="1440" y1="144.5" x2="-4.37115e-08" y2="144.5" stroke="currentColor"></line>
                            <line x1="1440" y1="156.5" x2="-4.37115e-08" y2="156.5" stroke="currentColor"></line>
                            <line x1="1440" y1="168.5" x2="-4.37115e-08" y2="168.5" stroke="currentColor"></line>
                            <line x1="1440" y1="180.5" x2="-4.37115e-08" y2="180.5" stroke="currentColor"></line>
                            <line x1="1440" y1="192.5" x2="-4.37115e-08" y2="192.5" stroke="currentColor"></line>
                            <line x1="1440" y1="204.5" x2="-4.37115e-08" y2="204.5" stroke="currentColor"></line>
                            <line x1="1440" y1="216.5" x2="-4.37115e-08" y2="216.5" stroke="currentColor"></line>
                            <line x1="1440" y1="228.5" x2="-4.37115e-08" y2="228.5" stroke="currentColor"></line>
                            <line x1="1440" y1="240.5" x2="-4.37115e-08" y2="240.5" stroke="currentColor"></line>
                            <line x1="1440" y1="252.5" x2="-4.37115e-08" y2="252.5" stroke="currentColor"></line>
                            <line x1="1440" y1="264.5" x2="-4.37115e-08" y2="264.5" stroke="currentColor"></line>
                            <line x1="1440" y1="276.5" x2="-4.37115e-08" y2="276.5" stroke="currentColor"></line>
                            <line x1="1440" y1="288.5" x2="-4.37115e-08" y2="288.5" stroke="currentColor"></line>
                          </g>
                        </g>
                        <defs>
                          <clipPath id="clip0_850_871">
                            <rect width="516" height="300" fill="currentColor"></rect>
                          </clipPath>
                        </defs>
                      </svg>