<svg xmlns="http://www.w3.org/2000/svg" xmlns:xlink="http://www.w3.org/1999/xlink" width="500" zoomAndPan="magnify" viewBox="0 0 375 374.999991" height="500" preserveAspectRatio="xMidYMid meet" version="1.0"><defs><g/><clipPath id="522d2ce7f0"><path d="M 114.671875 116.964844 L 274.421875 116.964844 L 274.421875 276.714844 L 114.671875 276.714844 Z M 114.671875 116.964844 " clip-rule="nonzero"/></clipPath></defs><g clip-path="url(#522d2ce7f0)"><path fill="#ffffff" d="M 194.597656 276.710938 C 194.597656 276.710938 194.59375 276.710938 194.585938 276.710938 L 192.160156 276.675781 L 192.15625 276.675781 L 189.816406 276.621094 C 189.808594 276.621094 189.792969 276.621094 189.789062 276.621094 L 187.609375 276.535156 C 187.59375 276.535156 187.589844 276.535156 187.574219 276.535156 L 185.613281 276.417969 C 185.597656 276.417969 185.59375 276.417969 185.578125 276.417969 L 183.898438 276.269531 C 183.882812 276.269531 183.867188 276.269531 183.855469 276.261719 L 182.511719 276.09375 C 182.496094 276.09375 182.488281 276.09375 182.476562 276.085938 L 181.480469 275.898438 L 179.394531 275.332031 L 168.691406 272.671875 C 168.683594 272.671875 168.683594 272.671875 168.679688 272.664062 C 168.671875 272.664062 168.664062 272.65625 168.65625 272.65625 L 167.550781 272.277344 C 167.535156 272.273438 167.523438 272.265625 167.507812 272.257812 L 157.15625 267.441406 L 155.867188 266.945312 L 154.992188 266.546875 C 154.964844 266.53125 154.9375 266.515625 154.910156 266.496094 L 143.554688 258.640625 C 143.527344 258.621094 143.507812 258.605469 143.476562 258.578125 L 133.636719 248.828125 C 133.617188 248.804688 133.597656 248.785156 133.582031 248.757812 L 125.5625 237.34375 C 125.546875 237.324219 125.535156 237.296875 125.519531 237.273438 L 119.59375 224.605469 C 119.582031 224.574219 119.566406 224.546875 119.558594 224.511719 L 119.539062 224.421875 L 115.933594 210.980469 C 115.925781 210.960938 115.917969 210.929688 115.917969 210.910156 L 115.898438 210.769531 C 115.890625 210.742188 115.882812 210.722656 115.882812 210.695312 L 114.679688 197.007812 L 114.679688 197 L 114.671875 196.949219 C 114.671875 196.917969 114.671875 196.882812 114.679688 196.847656 L 114.679688 196.761719 L 115.875 183.035156 L 115.910156 182.796875 C 115.917969 182.769531 115.917969 182.738281 115.933594 182.710938 L 115.953125 182.632812 L 119.554688 169.199219 C 119.558594 169.171875 119.574219 169.136719 119.582031 169.109375 L 125.492188 156.4375 C 125.5 156.417969 125.511719 156.394531 125.527344 156.375 C 125.527344 156.367188 125.535156 156.367188 125.535156 156.359375 L 133.546875 144.949219 C 133.5625 144.929688 133.582031 144.902344 133.601562 144.878906 L 143.441406 135.101562 C 143.464844 135.078125 143.492188 135.058594 143.519531 135.035156 L 154.867188 127.175781 C 154.886719 127.152344 154.914062 127.140625 154.945312 127.125 L 155.804688 126.734375 L 157.101562 126.238281 L 167.460938 121.414062 C 167.472656 121.40625 167.488281 121.398438 167.5 121.390625 L 168.609375 121.015625 C 168.628906 121.007812 168.648438 121 168.671875 121 L 168.679688 121 L 181.402344 117.78125 L 182.425781 117.582031 C 182.433594 117.582031 182.449219 117.582031 182.453125 117.578125 L 183.8125 117.410156 C 183.820312 117.410156 183.828125 117.410156 183.835938 117.410156 L 185.535156 117.261719 C 185.542969 117.261719 185.542969 117.261719 185.550781 117.261719 L 187.53125 117.144531 C 187.539062 117.144531 187.539062 117.144531 187.546875 117.144531 L 189.746094 117.050781 L 189.753906 117.050781 L 192.105469 116.996094 L 192.121094 116.996094 L 194.535156 116.96875 L 194.542969 116.96875 L 196.980469 116.996094 C 196.988281 116.996094 196.988281 116.996094 196.996094 116.996094 L 199.339844 117.050781 L 199.347656 117.050781 L 201.554688 117.144531 C 201.5625 117.144531 201.5625 117.144531 201.566406 117.144531 L 203.542969 117.261719 C 203.550781 117.261719 203.550781 117.261719 203.558594 117.261719 L 205.246094 117.410156 C 205.257812 117.410156 205.273438 117.410156 205.285156 117.414062 L 206.632812 117.582031 C 206.636719 117.582031 206.644531 117.582031 206.660156 117.589844 L 207.652344 117.78125 L 209.769531 118.355469 L 220.449219 121.007812 L 221.550781 121.386719 L 234.113281 127.113281 C 234.121094 127.113281 234.128906 127.117188 234.128906 127.117188 C 234.148438 127.125 234.171875 127.140625 234.183594 127.152344 L 245.550781 135.015625 C 245.574219 135.03125 245.59375 135.050781 245.613281 135.066406 L 255.460938 144.835938 C 255.484375 144.859375 255.503906 144.878906 255.519531 144.90625 L 263.539062 156.3125 C 263.539062 156.320312 263.542969 156.320312 263.542969 156.324219 C 263.558594 156.347656 263.566406 156.367188 263.578125 156.390625 L 269.503906 169.054688 C 269.519531 169.082031 269.527344 169.109375 269.539062 169.144531 L 273.175781 182.683594 C 273.183594 182.699219 273.183594 182.71875 273.1875 182.734375 C 273.1875 182.738281 273.1875 182.746094 273.1875 182.753906 L 273.210938 182.9375 C 273.210938 182.949219 273.214844 182.96875 273.214844 182.984375 L 274.421875 196.804688 C 274.421875 196.832031 274.421875 196.851562 274.421875 196.875 L 273.222656 210.628906 C 273.222656 210.644531 273.222656 210.652344 273.214844 210.664062 C 273.214844 210.671875 273.214844 210.679688 273.214844 210.679688 L 273.195312 210.839844 C 273.195312 210.847656 273.195312 210.863281 273.1875 210.867188 C 273.1875 210.882812 273.183594 210.902344 273.183594 210.917969 L 269.554688 224.457031 C 269.546875 224.484375 269.53125 224.519531 269.519531 224.546875 L 263.601562 237.226562 C 263.585938 237.253906 263.574219 237.273438 263.558594 237.304688 L 255.546875 248.714844 C 255.53125 248.734375 255.511719 248.761719 255.488281 248.777344 L 245.648438 258.558594 C 245.628906 258.578125 245.601562 258.597656 245.574219 258.621094 L 234.21875 266.480469 C 234.199219 266.496094 234.171875 266.511719 234.148438 266.523438 L 221.625 272.242188 L 220.484375 272.636719 C 220.476562 272.636719 220.464844 272.644531 220.457031 272.644531 L 217.03125 273.511719 L 209.761719 275.308594 L 207.695312 275.871094 L 206.671875 276.066406 C 206.667969 276.066406 206.660156 276.066406 206.652344 276.066406 C 206.644531 276.066406 206.636719 276.066406 206.636719 276.066406 L 205.285156 276.234375 C 205.273438 276.234375 205.257812 276.234375 205.246094 276.242188 L 203.570312 276.386719 C 203.558594 276.386719 203.550781 276.386719 203.535156 276.386719 L 201.582031 276.507812 C 201.566406 276.507812 201.5625 276.507812 201.546875 276.507812 L 199.367188 276.597656 C 199.363281 276.597656 199.347656 276.597656 199.339844 276.597656 L 197 276.65625 L 196.996094 276.65625 L 194.570312 276.6875 C 194.613281 276.710938 194.605469 276.710938 194.597656 276.710938 Z M 192.363281 275.785156 L 194.164062 275.800781 L 194.164062 274.183594 L 190.796875 274.160156 Z M 195.046875 274.183594 L 195.046875 275.800781 L 196.847656 275.785156 L 198.417969 274.15625 Z M 189.933594 275.738281 L 191.105469 275.765625 L 189.550781 274.148438 L 186.875 274.09375 Z M 199.664062 274.140625 L 198.109375 275.757812 L 199.277344 275.730469 L 202.339844 274.078125 Z M 187.707031 275.644531 L 187.925781 275.652344 L 184.933594 274.042969 L 183.34375 273.980469 Z M 204.285156 274.035156 L 201.289062 275.652344 L 201.496094 275.644531 L 205.867188 273.980469 Z M 180.332031 273.859375 L 181.382812 274.191406 L 180.5625 273.875 Z M 208.648438 273.859375 L 207.84375 274.167969 L 208.878906 273.847656 Z M 190.03125 273.265625 L 194.164062 273.292969 L 194.164062 269.15625 L 188.097656 269.113281 Z M 195.054688 269.15625 L 195.054688 273.292969 L 199.1875 273.257812 L 201.121094 269.113281 Z M 185.25 273.160156 L 189.046875 273.246094 L 187.117188 269.109375 L 181.46875 268.988281 Z M 202.101562 269.101562 L 200.175781 273.238281 L 203.96875 273.152344 L 207.753906 268.980469 Z M 180.816406 272.992188 L 184.003906 273.117188 L 180.234375 268.96875 L 175.332031 268.792969 Z M 208.976562 268.953125 L 205.210938 273.113281 L 208.398438 272.984375 L 213.878906 268.773438 Z M 176.867188 272.769531 L 179.246094 272.910156 L 173.804688 268.730469 L 169.917969 268.519531 Z M 215.40625 268.714844 L 209.964844 272.894531 L 212.339844 272.753906 L 219.289062 268.5 Z M 173.511719 272.488281 L 174.902344 272.609375 L 168.054688 268.414062 L 165.40625 268.203125 Z M 221.164062 268.394531 L 214.316406 272.59375 L 215.707031 272.476562 L 223.8125 268.183594 Z M 170.84375 272.167969 L 171.050781 272.195312 L 163.164062 268.023438 L 161.980469 267.890625 Z M 226.046875 268 L 218.160156 272.175781 L 218.371094 272.144531 L 227.230469 267.863281 Z M 187.734375 268.234375 L 194.164062 268.273438 L 194.164062 261.6875 L 185.816406 261.636719 Z M 195.054688 261.6875 L 195.054688 268.273438 L 201.484375 268.226562 L 203.402344 261.628906 Z M 180.703125 268.09375 L 186.804688 268.21875 L 184.882812 261.628906 L 176.941406 261.484375 Z M 204.328125 261.625 L 202.410156 268.210938 L 208.507812 268.078125 L 212.269531 261.46875 Z M 174.183594 267.863281 L 179.667969 268.058594 L 175.914062 261.460938 L 168.742188 261.230469 Z M 213.304688 261.449219 L 209.550781 268.050781 L 215.027344 267.847656 L 220.472656 261.210938 Z M 168.375 267.546875 L 172.976562 267.796875 L 167.550781 261.191406 L 161.464844 260.890625 Z M 221.65625 261.167969 L 216.226562 267.785156 L 220.828125 267.53125 L 227.734375 260.867188 Z M 163.472656 267.160156 L 166.996094 267.441406 L 160.125 260.820312 L 155.382812 260.484375 Z M 229.09375 260.789062 L 222.222656 267.421875 L 225.738281 267.140625 L 233.835938 260.453125 Z M 159.601562 266.71875 L 161.855469 266.980469 L 153.84375 260.363281 L 150.648438 260.035156 Z M 235.359375 260.335938 L 227.347656 266.957031 L 229.605469 266.699219 L 238.546875 260.007812 Z M 156.875 266.246094 L 157.667969 266.382812 L 148.921875 259.84375 L 147.492188 259.613281 Z M 240.285156 259.816406 L 231.535156 266.355469 L 232.320312 266.214844 L 241.699219 259.578125 Z M 185.59375 260.75 L 194.164062 260.796875 L 194.164062 251.933594 L 183.839844 251.886719 Z M 195.054688 251.933594 L 195.054688 260.796875 L 203.632812 260.742188 L 205.386719 251.871094 Z M 176.480469 260.585938 L 184.679688 260.742188 L 182.929688 251.878906 L 173.054688 251.726562 Z M 206.28125 251.863281 L 204.53125 260.726562 L 212.730469 260.574219 L 216.15625 251.703125 Z M 168.039062 260.316406 L 175.519531 260.558594 L 172.097656 251.703125 L 163.082031 251.457031 Z M 217.117188 251.691406 L 213.699219 260.546875 L 221.179688 260.300781 L 226.128906 251.4375 Z M 160.546875 259.949219 L 166.996094 260.265625 L 162.050781 251.417969 L 154.269531 251.09375 Z M 227.160156 251.402344 L 222.214844 260.25 L 228.660156 259.929688 L 234.933594 251.074219 Z M 154.242188 259.507812 L 159.40625 259.875 L 153.144531 251.046875 L 146.890625 250.667969 Z M 236.070312 251.019531 L 229.808594 259.851562 L 234.96875 259.480469 L 242.316406 250.632812 Z M 149.3125 259.003906 L 152.988281 259.382812 L 145.675781 250.589844 L 141.1875 250.191406 Z M 243.535156 250.554688 L 236.222656 259.355469 L 239.894531 258.96875 L 248.023438 250.148438 Z M 145.878906 258.460938 L 147.898438 258.789062 L 139.851562 250.074219 L 137.292969 249.714844 Z M 249.347656 250.03125 L 241.308594 258.753906 L 243.316406 258.425781 L 251.898438 249.667969 Z M 144.039062 257.898438 L 144.117188 257.921875 L 135.828125 249.484375 L 135.457031 249.378906 Z M 253.359375 249.441406 L 245.082031 257.886719 L 245.152344 257.863281 L 253.726562 249.34375 Z M 183.6875 250.996094 L 194.164062 251.046875 L 194.164062 240.179688 L 182.214844 240.136719 Z M 195.054688 240.179688 L 195.054688 251.046875 L 205.53125 250.988281 L 207.003906 240.132812 Z M 172.746094 250.828125 L 182.789062 250.984375 L 181.3125 240.125 L 169.863281 239.984375 Z M 207.898438 240.117188 L 206.429688 250.976562 L 216.472656 250.816406 L 219.351562 239.976562 Z M 162.625 250.554688 L 171.828125 250.808594 L 168.949219 239.976562 L 158.464844 239.753906 Z M 220.269531 239.957031 L 217.390625 250.785156 L 226.585938 250.527344 L 230.746094 239.71875 Z M 153.660156 250.183594 L 161.652344 250.519531 L 157.5 239.726562 L 148.394531 239.425781 Z M 231.710938 239.703125 L 227.558594 250.5 L 235.550781 250.164062 L 240.816406 239.402344 Z M 146.160156 249.738281 L 152.644531 250.128906 L 147.386719 239.394531 L 139.996094 239.046875 Z M 241.8125 239.363281 L 236.558594 250.101562 L 243.042969 249.703125 L 249.195312 239.003906 Z M 140.328125 249.226562 L 145.082031 249.644531 L 138.945312 238.984375 L 133.527344 238.605469 Z M 250.25 238.949219 L 244.117188 249.609375 L 248.863281 249.183594 L 255.664062 238.5625 Z M 136.320312 248.671875 L 139.179688 249.070312 L 132.417969 238.515625 L 129.132812 238.148438 Z M 256.777344 238.480469 L 250.019531 249.035156 L 252.871094 248.636719 L 260.050781 238.117188 Z M 134.21875 248.121094 L 135.015625 248.34375 L 127.957031 238.011719 L 126.949219 237.785156 Z M 261.234375 237.953125 L 254.179688 248.292969 L 254.972656 248.078125 L 262.234375 237.730469 Z M 182.109375 239.25 L 194.164062 239.292969 L 194.164062 226.816406 L 180.996094 226.78125 Z M 195.046875 226.816406 L 195.046875 239.292969 L 207.101562 239.234375 L 208.214844 226.773438 Z M 169.660156 239.101562 L 181.222656 239.242188 L 180.109375 226.78125 L 167.488281 226.675781 Z M 209.105469 226.773438 L 207.992188 239.234375 L 219.546875 239.089844 L 221.71875 226.664062 Z M 158.152344 238.859375 L 168.753906 239.082031 L 166.578125 226.667969 L 155.007812 226.5 Z M 222.628906 226.648438 L 220.457031 239.066406 L 231.054688 238.828125 L 234.191406 226.464844 Z M 147.996094 238.527344 L 157.226562 238.828125 L 154.082031 226.480469 L 144.015625 226.257812 Z M 235.109375 226.453125 L 231.972656 238.800781 L 241.203125 238.492188 L 245.167969 226.222656 Z M 139.527344 238.128906 L 147.058594 238.488281 L 143.09375 226.226562 L 134.898438 225.960938 Z M 246.113281 226.199219 L 242.148438 238.457031 L 249.671875 238.09375 L 254.300781 225.925781 Z M 132.980469 237.679688 L 138.554688 238.074219 L 133.933594 225.933594 L 127.875 225.640625 Z M 255.265625 225.886719 L 250.652344 238.03125 L 256.21875 237.640625 L 261.324219 225.589844 Z M 128.523438 237.199219 L 131.976562 237.582031 L 126.878906 225.585938 L 123.125 225.296875 Z M 262.304688 225.535156 L 257.21875 237.535156 L 260.664062 237.148438 L 266.058594 225.242188 Z M 126.234375 236.707031 L 127.453125 236.980469 L 122.101562 225.191406 L 120.742188 224.976562 Z M 267.074219 225.144531 L 261.738281 236.933594 L 262.949219 236.660156 L 268.425781 224.925781 Z M 180.925781 225.898438 L 194.15625 225.933594 L 194.15625 212.324219 L 180.234375 212.3125 Z M 195.046875 212.324219 L 195.046875 225.933594 L 208.277344 225.890625 L 208.964844 212.304688 Z M 167.355469 225.785156 L 180.046875 225.890625 L 179.34375 212.304688 L 165.996094 212.246094 Z M 209.851562 212.296875 L 209.167969 225.886719 L 221.859375 225.773438 L 223.210938 212.234375 Z M 154.824219 225.613281 L 166.464844 225.78125 L 165.105469 212.246094 L 152.863281 212.15625 Z M 224.09375 212.226562 L 222.742188 225.757812 L 234.375 225.585938 L 236.320312 212.136719 Z M 143.78125 225.367188 L 153.921875 225.589844 L 151.964844 212.148438 L 141.3125 212.03125 Z M 237.222656 212.121094 L 235.277344 225.5625 L 245.410156 225.332031 L 247.871094 212.003906 Z M 134.597656 225.074219 L 142.875 225.347656 L 140.410156 212.03125 L 131.726562 211.890625 Z M 248.78125 211.988281 L 246.320312 225.304688 L 254.59375 225.03125 L 257.464844 211.839844 Z M 127.539062 224.738281 L 133.6875 225.03125 L 130.816406 211.863281 L 124.371094 211.707031 Z M 258.375 211.820312 L 255.511719 224.988281 L 261.652344 224.6875 L 264.8125 211.660156 Z M 122.761719 224.378906 L 126.605469 224.675781 L 123.445312 211.679688 L 119.421875 211.527344 Z M 265.730469 211.632812 L 262.578125 224.625 L 266.417969 224.324219 L 269.75 211.46875 Z M 120.34375 224.015625 L 121.808594 224.246094 L 118.480469 211.46875 L 116.941406 211.34375 Z M 270.6875 211.40625 L 267.367188 224.199219 L 268.824219 223.96875 L 272.234375 211.21875 Z M 180.199219 211.421875 L 194.152344 211.4375 L 194.144531 197.246094 L 179.953125 197.253906 Z M 195.039062 197.246094 L 195.046875 211.4375 L 209 211.414062 L 209.230469 197.246094 Z M 165.933594 211.367188 L 179.316406 211.421875 L 179.078125 197.253906 L 165.46875 197.257812 Z M 210.113281 197.246094 L 209.882812 211.414062 L 223.257812 211.351562 L 223.714844 197.246094 Z M 152.773438 211.273438 L 165.042969 211.367188 L 164.582031 197.257812 L 152.105469 197.265625 Z M 224.601562 197.238281 L 224.148438 211.34375 L 236.417969 211.246094 L 237.078125 197.238281 Z M 141.195312 211.148438 L 151.882812 211.265625 L 151.21875 197.265625 L 140.355469 197.273438 Z M 237.964844 197.238281 L 237.308594 211.238281 L 247.988281 211.113281 L 248.824219 197.238281 Z M 131.585938 210.996094 L 140.3125 211.132812 L 139.472656 197.273438 L 130.613281 197.28125 Z M 249.710938 197.238281 L 248.878906 211.097656 L 257.597656 210.953125 L 258.566406 197.238281 Z M 124.210938 210.820312 L 130.695312 210.972656 L 129.722656 197.28125 L 123.140625 197.285156 Z M 259.460938 197.238281 L 258.496094 210.929688 L 264.972656 210.769531 L 266.039062 197.238281 Z M 119.246094 210.628906 L 123.3125 210.792969 L 122.242188 197.285156 L 118.109375 197.292969 Z M 266.925781 197.238281 L 265.863281 210.734375 L 269.925781 210.574219 L 271.050781 197.238281 Z M 116.75 210.441406 L 118.347656 210.574219 L 117.222656 197.292969 L 115.597656 197.300781 Z M 271.941406 197.238281 L 270.820312 210.496094 L 272.417969 210.300781 L 273.554688 197.246094 Z M 116.75 183.265625 L 115.597656 196.410156 L 117.222656 196.40625 L 118.339844 183.125 Z M 119.238281 183.070312 L 118.109375 196.40625 L 122.242188 196.398438 L 123.308594 182.902344 Z M 124.195312 182.871094 L 123.132812 196.40625 L 129.714844 196.398438 L 130.683594 182.703125 Z M 131.570312 182.683594 L 130.605469 196.390625 L 139.464844 196.382812 L 140.292969 182.523438 Z M 141.1875 182.515625 L 140.355469 196.390625 L 151.21875 196.382812 L 151.875 182.382812 Z M 152.765625 182.367188 L 152.105469 196.378906 L 164.582031 196.371094 L 165.035156 182.269531 Z M 165.925781 182.261719 L 165.46875 196.371094 L 179.078125 196.363281 L 179.308594 182.195312 Z M 180.191406 182.195312 L 179.960938 196.363281 L 194.152344 196.355469 L 194.144531 182.164062 Z M 195.035156 182.171875 L 195.039062 196.363281 L 209.230469 196.355469 L 208.992188 182.1875 Z M 271.941406 196.355469 L 273.554688 196.363281 L 272.40625 183.300781 L 270.816406 183.097656 Z M 209.875 182.1875 L 210.113281 196.355469 L 223.714844 196.355469 L 223.246094 182.25 Z M 266.925781 196.347656 L 271.050781 196.347656 L 269.917969 183.011719 L 265.855469 182.84375 Z M 224.140625 182.25 L 224.601562 196.347656 L 237.078125 196.347656 L 236.40625 182.339844 Z M 259.460938 196.347656 L 266.039062 196.347656 L 264.960938 182.816406 L 258.480469 182.65625 Z M 237.292969 182.347656 L 237.964844 196.347656 L 248.824219 196.347656 L 247.980469 182.472656 Z M 249.710938 196.347656 L 258.570312 196.347656 L 257.589844 182.632812 L 248.871094 182.488281 Z M 270.675781 182.1875 L 272.230469 182.382812 L 268.804688 169.632812 L 267.347656 169.394531 Z M 120.332031 169.691406 L 116.941406 182.363281 L 118.480469 182.230469 L 121.792969 169.453125 Z M 122.738281 169.320312 L 119.40625 182.171875 L 123.433594 182.003906 L 126.585938 169.019531 Z M 265.722656 181.957031 L 269.742188 182.117188 L 266.394531 169.261719 L 262.558594 168.960938 Z M 127.515625 168.949219 L 124.359375 181.976562 L 130.800781 181.808594 L 133.660156 168.648438 Z M 258.363281 181.765625 L 264.796875 181.925781 L 261.625 168.898438 L 255.484375 168.597656 Z M 134.578125 168.605469 L 131.710938 181.792969 L 140.394531 181.640625 L 142.855469 168.316406 Z M 248.773438 181.597656 L 257.453125 181.746094 L 254.574219 168.554688 L 246.300781 168.28125 Z M 143.765625 168.296875 L 141.308594 181.625 L 151.960938 181.492188 L 153.898438 168.050781 Z M 237.21875 181.464844 L 247.863281 181.589844 L 245.390625 168.261719 L 235.257812 168.03125 Z M 154.804688 168.039062 L 152.855469 181.488281 L 165.09375 181.386719 L 166.4375 167.855469 Z M 224.085938 181.359375 L 236.320312 181.453125 L 234.359375 168.003906 L 222.726562 167.828125 Z M 167.332031 167.84375 L 165.988281 181.375 L 179.335938 181.3125 L 180.023438 167.730469 Z M 209.847656 181.304688 L 223.195312 181.359375 L 221.835938 167.828125 L 209.152344 167.722656 Z M 180.90625 167.722656 L 180.21875 181.3125 L 194.144531 181.285156 L 194.136719 167.679688 Z M 195.035156 181.285156 L 208.957031 181.296875 L 208.257812 167.710938 L 195.027344 167.675781 Z M 126.207031 156.996094 L 120.730469 168.722656 L 122.089844 168.507812 L 127.425781 156.71875 Z M 267.054688 168.457031 L 268.40625 168.675781 L 262.921875 156.949219 L 261.710938 156.667969 Z M 128.496094 156.5 L 123.109375 168.410156 L 126.863281 168.109375 L 131.949219 156.109375 Z M 262.285156 168.058594 L 266.03125 168.351562 L 260.632812 156.453125 L 257.183594 156.058594 Z M 132.953125 156.003906 L 127.84375 168.046875 L 133.902344 167.742188 L 138.519531 155.605469 Z M 255.246094 167.703125 L 261.296875 168.003906 L 256.183594 155.960938 L 250.617188 155.5625 Z M 139.492188 155.542969 L 134.871094 167.710938 L 143.066406 167.429688 L 147.023438 155.171875 Z M 246.089844 167.386719 L 254.277344 167.660156 L 249.640625 155.5 L 242.121094 155.136719 Z M 147.96875 155.128906 L 144.003906 167.402344 L 154.066406 167.164062 L 157.199219 154.8125 Z M 235.089844 167.136719 L 245.144531 167.367188 L 241.175781 155.09375 L 231.941406 154.785156 Z M 158.125 154.785156 L 154.984375 167.140625 L 166.554688 166.960938 L 168.726562 154.546875 Z M 222.605469 166.945312 L 234.171875 167.121094 L 231.027344 154.765625 L 220.429688 154.535156 Z M 169.628906 154.535156 L 167.460938 166.953125 L 180.078125 166.839844 L 181.1875 154.386719 Z M 209.082031 166.828125 L 221.703125 166.933594 L 219.527344 154.519531 L 207.96875 154.378906 Z M 182.082031 154.371094 L 180.976562 166.832031 L 194.144531 166.792969 L 194.136719 154.324219 Z M 195.027344 166.792969 L 208.195312 166.828125 L 207.074219 154.367188 L 195.019531 154.324219 Z M 134.183594 145.578125 L 126.921875 155.925781 L 127.929688 155.695312 L 134.976562 145.355469 Z M 261.207031 155.648438 L 262.207031 155.878906 L 254.9375 145.542969 L 254.144531 145.320312 Z M 136.285156 145.011719 L 129.105469 155.535156 L 132.390625 155.164062 L 139.144531 144.605469 Z M 256.742188 155.121094 L 260.023438 155.492188 L 252.835938 144.976562 L 249.984375 144.570312 Z M 140.292969 144.453125 L 133.496094 155.074219 L 138.917969 154.679688 L 145.046875 144.027344 Z M 250.222656 154.644531 L 255.636719 155.03125 L 248.828125 144.417969 L 244.082031 143.992188 Z M 146.125 143.933594 L 139.976562 154.632812 L 147.367188 154.269531 L 152.617188 143.535156 Z M 241.785156 154.234375 L 249.164062 154.589844 L 243.007812 143.898438 L 236.523438 143.5 Z M 153.625 143.472656 L 148.367188 154.226562 L 157.472656 153.917969 L 161.625 143.128906 Z M 231.675781 153.898438 L 240.773438 154.199219 L 235.5 143.445312 L 227.511719 143.109375 Z M 162.585938 143.09375 L 158.429688 153.898438 L 168.914062 153.660156 L 171.789062 142.828125 Z M 220.238281 153.644531 L 230.71875 153.875 L 226.550781 143.082031 L 217.355469 142.828125 Z M 172.710938 142.808594 L 169.839844 153.644531 L 181.292969 153.496094 L 182.753906 142.644531 Z M 207.863281 153.484375 L 219.316406 153.625 L 216.429688 142.792969 L 206.386719 142.632812 Z M 183.652344 142.632812 L 182.1875 153.484375 L 194.136719 153.425781 L 194.128906 142.570312 Z M 195.019531 153.433594 L 206.96875 153.476562 L 205.488281 142.625 L 195.011719 142.578125 Z M 143.996094 135.792969 L 135.429688 144.3125 L 135.796875 144.207031 L 144.066406 135.773438 Z M 253.324219 144.164062 L 253.683594 144.261719 L 245.109375 135.757812 L 245.046875 135.738281 Z M 145.839844 135.234375 L 137.257812 143.984375 L 139.816406 143.621094 L 147.855469 134.902344 Z M 249.304688 143.578125 L 251.855469 143.941406 L 243.269531 135.199219 L 241.257812 134.867188 Z M 149.269531 134.671875 L 141.144531 143.488281 L 145.636719 143.082031 L 152.941406 134.289062 Z M 243.492188 143.046875 L 247.980469 143.453125 L 239.851562 134.644531 L 236.179688 134.257812 Z M 154.199219 134.160156 L 146.855469 143.003906 L 153.101562 142.617188 L 159.363281 133.785156 Z M 236.027344 142.582031 L 242.273438 142.96875 L 234.921875 134.132812 L 229.765625 133.761719 Z M 160.503906 133.707031 L 154.230469 142.5625 L 162.011719 142.226562 L 166.953125 133.382812 Z M 227.125 142.207031 L 234.90625 142.535156 L 228.625 133.683594 L 222.179688 133.363281 Z M 168 133.335938 L 163.046875 142.191406 L 172.0625 141.933594 L 175.472656 133.082031 Z M 217.082031 141.925781 L 226.089844 142.175781 L 221.128906 133.3125 L 213.648438 133.070312 Z M 176.4375 133.054688 L 173.019531 141.917969 L 182.894531 141.757812 L 184.640625 132.902344 Z M 206.246094 141.75 L 216.121094 141.90625 L 212.691406 133.046875 L 204.488281 132.894531 Z M 185.542969 132.886719 L 183.800781 141.75 L 194.121094 141.695312 L 194.117188 132.839844 Z M 195.011719 141.6875 L 205.335938 141.734375 L 203.578125 132.878906 L 195.003906 132.832031 Z M 156.828125 127.433594 L 147.457031 134.0625 L 148.878906 133.832031 L 157.613281 127.292969 Z M 240.234375 133.796875 L 241.652344 134.027344 L 232.273438 127.414062 L 231.496094 127.273438 Z M 159.550781 126.949219 L 150.609375 133.636719 L 153.792969 133.300781 L 161.800781 126.683594 Z M 235.320312 133.28125 L 238.5 133.617188 L 229.546875 126.9375 L 227.300781 126.675781 Z M 163.425781 126.507812 L 155.335938 133.1875 L 160.078125 132.84375 L 166.941406 126.222656 Z M 229.050781 132.816406 L 233.785156 133.160156 L 225.6875 126.488281 L 222.171875 126.207031 Z M 168.328125 126.117188 L 161.421875 132.773438 L 167.507812 132.46875 L 172.929688 125.859375 Z M 221.613281 132.445312 L 227.691406 132.746094 L 220.777344 126.097656 L 216.179688 125.84375 Z M 174.132812 125.796875 L 168.691406 132.425781 L 175.863281 132.1875 L 179.609375 125.59375 Z M 213.257812 132.171875 L 220.429688 132.410156 L 214.980469 125.789062 L 209.503906 125.59375 Z M 180.65625 125.558594 L 176.898438 132.160156 L 184.851562 132.003906 L 186.761719 125.425781 Z M 204.285156 132 L 212.226562 132.144531 L 208.464844 125.542969 L 202.367188 125.417969 Z M 187.6875 125.410156 L 185.773438 132 L 194.121094 131.941406 L 194.117188 125.363281 Z M 195.003906 131.941406 L 203.355469 131.992188 L 201.425781 125.402344 L 195 125.363281 Z M 170.785156 121.503906 L 161.941406 125.78125 L 163.109375 125.648438 L 170.988281 121.476562 Z M 225.996094 125.628906 L 227.167969 125.761719 L 218.3125 121.488281 L 218.109375 121.460938 Z M 173.453125 121.183594 L 165.359375 125.464844 L 168 125.257812 L 174.839844 121.0625 Z M 221.117188 125.230469 L 223.753906 125.4375 L 215.652344 121.160156 L 214.265625 121.042969 Z M 176.816406 120.894531 L 169.875 125.144531 L 173.753906 124.925781 L 179.191406 120.753906 Z M 215.359375 124.914062 L 219.238281 125.128906 L 212.289062 120.886719 L 209.917969 120.75 Z M 180.765625 120.664062 L 175.289062 124.863281 L 180.183594 124.683594 L 183.945312 120.539062 Z M 208.929688 124.675781 L 213.824219 124.851562 L 208.339844 120.648438 L 205.152344 120.523438 Z M 185.191406 120.488281 L 181.417969 124.65625 L 187.070312 124.535156 L 188.996094 120.40625 Z M 202.050781 124.527344 L 207.703125 124.648438 L 203.914062 120.480469 L 200.117188 120.398438 Z M 189.976562 120.382812 L 188.050781 124.523438 L 194.117188 124.480469 L 194.109375 120.355469 Z M 195.003906 124.480469 L 201.070312 124.523438 L 199.136719 120.382812 L 195.003906 120.355469 Z M 181.265625 119.496094 L 180.296875 119.796875 L 180.507812 119.78125 Z M 208.59375 119.773438 L 208.800781 119.789062 L 207.851562 119.496094 Z M 187.652344 118.019531 L 183.292969 119.675781 L 184.914062 119.59375 L 187.855469 118.011719 Z M 204.234375 119.605469 L 205.8125 119.671875 L 201.457031 118.011719 L 201.253906 118.003906 Z M 189.878906 117.925781 L 186.832031 119.566406 L 189.5 119.503906 L 191.046875 117.890625 Z M 199.605469 119.503906 L 202.273438 119.558594 L 199.222656 117.917969 L 198.050781 117.890625 Z M 192.308594 117.871094 L 190.746094 119.496094 L 194.109375 119.46875 L 194.109375 117.855469 Z M 195 119.46875 L 198.359375 119.488281 L 196.792969 117.871094 L 194.992188 117.855469 Z M 195 119.46875 " fill-opacity="1" fill-rule="nonzero"/></g><g fill="#ffffff" fill-opacity="1"><g transform="translate(111.277349, 178.250832)"><g><path d="M 4.765625 -13.546875 L 0.859375 -2.4375 L -30.96875 -13.625 L -27.0625 -24.734375 C -25.914062 -27.984375 -24.734375 -30.46875 -23.515625 -32.1875 C -22.304688 -33.914062 -20.910156 -35.148438 -19.328125 -35.890625 C -17.742188 -36.617188 -15.847656 -36.890625 -13.640625 -36.703125 C -11.441406 -36.523438 -8.785156 -35.890625 -5.671875 -34.796875 C -0.160156 -32.847656 3.4375 -30.1875 5.125 -26.8125 C 6.8125 -23.445312 6.691406 -19.023438 4.765625 -13.546875 Z M -15.734375 -27.765625 C -16.597656 -27.546875 -17.351562 -27.035156 -18 -26.234375 C -18.644531 -25.429688 -19.296875 -24.097656 -19.953125 -22.234375 L -21.09375 -18.984375 L -3.734375 -12.890625 L -2.59375 -16.140625 C -1.945312 -17.960938 -1.613281 -19.382812 -1.59375 -20.40625 C -1.582031 -21.425781 -1.828125 -22.3125 -2.328125 -23.0625 C -2.816406 -23.726562 -3.554688 -24.347656 -4.546875 -24.921875 C -5.535156 -25.503906 -6.863281 -26.085938 -8.53125 -26.671875 C -10.21875 -27.265625 -11.628906 -27.644531 -12.765625 -27.8125 C -13.910156 -27.988281 -14.898438 -27.972656 -15.734375 -27.765625 Z M -15.734375 -27.765625 "/></g></g></g><g fill="#ffffff" fill-opacity="1"><g transform="translate(119.387807, 152.240923)"><g><path d="M 5.46875 -6.640625 L -0.09375 0.125 L -18.203125 -30.953125 L -12.6875 -37.65625 L 21.078125 -25.578125 L 15.53125 -18.84375 L 10.046875 -21.078125 L 2.234375 -11.59375 Z M -9.171875 -28.890625 C -8.578125 -28.023438 -7.953125 -27.101562 -7.296875 -26.125 C -6.640625 -25.144531 -5.582031 -23.539062 -4.125 -21.3125 L -1.578125 -17.390625 L 3.59375 -23.65625 L -0.734375 -25.421875 C -2.085938 -25.929688 -3.5 -26.488281 -4.96875 -27.09375 C -6.4375 -27.695312 -7.835938 -28.296875 -9.171875 -28.890625 Z M -9.171875 -28.890625 "/></g></g></g><g fill="#ffffff" fill-opacity="1"><g transform="translate(136.227336, 130.110737)"><g><path d="M 10.6875 -45.03125 L 27.484375 -15.765625 L 20.578125 -11.8125 L -0.6875 -22.046875 L 9 -5.15625 L 2.234375 -1.28125 L -14.5625 -30.546875 L -7.703125 -34.484375 L 14 -23.59375 L 3.921875 -41.15625 Z M 10.6875 -45.03125 "/></g></g></g><g fill="#ffffff" fill-opacity="1"><g transform="translate(163.022651, 115.712585)"><g><path d="M 1.8125 -35.40625 L 10.546875 -2.828125 L 2.484375 -0.671875 L -6.25 -33.25 Z M 1.8125 -35.40625 "/></g></g></g><g fill="#ffffff" fill-opacity="1"><g transform="translate(172.917399, 111.92781)"><g><path d="M 25.5 -8.8125 L 25.8125 -1.015625 L 2.578125 -0.109375 L 1.234375 -33.8125 L 23.984375 -34.703125 L 24.296875 -27.1875 L 9.875 -26.625 L 10.09375 -21.03125 L 22.515625 -21.515625 L 22.78125 -14.515625 L 10.359375 -14.03125 L 10.59375 -8.234375 Z M 25.5 -8.8125 "/></g></g></g><g fill="#ffffff" fill-opacity="1"><g transform="translate(195.974992, 110.60668)"><g><path d="M 25.25 -1.828125 L 23.390625 5.75 L 2.5 0.609375 L 10.5625 -32.140625 L 18.671875 -30.140625 L 12.46875 -4.96875 Z M 25.25 -1.828125 "/></g></g></g><g fill="#ffffff" fill-opacity="1"><g transform="translate(122.188886, 281.082948)"><g><path d="M 5.296875 3.90625 L -0.09375 -0.078125 L 22.890625 -15.15625 L 28.21875 -11.234375 L 20.375 15.03125 L 15.03125 11.078125 L 16.5 6.8125 L 8.953125 1.25 Z M 21.671875 -8.1875 C 21.035156 -7.695312 20.359375 -7.179688 19.640625 -6.640625 C 18.921875 -6.097656 17.738281 -5.226562 16.09375 -4.03125 L 13.203125 -1.90625 L 18.203125 1.78125 L 19.375 -1.609375 C 19.71875 -2.660156 20.085938 -3.757812 20.484375 -4.90625 C 20.878906 -6.050781 21.273438 -7.144531 21.671875 -8.1875 Z M 21.671875 -8.1875 "/></g></g></g><g fill="#ffffff" fill-opacity="1"><g transform="translate(146.032538, 298.041827)"><g><path d="M 20.234375 -3.859375 L 25.59375 -17.78125 L 31.546875 -15.484375 L 26.1875 -1.5625 C 24.84375 1.945312 22.976562 4.242188 20.59375 5.328125 C 18.21875 6.421875 15.3125 6.3125 11.875 5 C 8.269531 3.613281 5.957031 1.773438 4.9375 -0.515625 C 3.914062 -2.816406 4.113281 -5.8125 5.53125 -9.5 L 10.890625 -23.421875 L 16.84375 -21.140625 L 11.484375 -7.21875 C 10.742188 -5.269531 10.539062 -3.835938 10.875 -2.921875 C 11.21875 -2.015625 12.257812 -1.222656 14 -0.546875 C 15.707031 0.109375 16.988281 0.207031 17.84375 -0.25 C 18.695312 -0.707031 19.492188 -1.910156 20.234375 -3.859375 Z M 20.234375 -3.859375 "/></g></g></g><g fill="#ffffff" fill-opacity="1"><g transform="translate(173.614978, 307.878153)"><g><path d="M 23.84375 -23.109375 L 23.171875 -17.40625 L 16.1875 -18.25 L 13.8125 1.640625 L 7.484375 0.890625 L 9.859375 -19 L 2.875 -19.828125 L 3.546875 -25.53125 Z M 23.84375 -23.109375 "/></g></g></g><g fill="#ffffff" fill-opacity="1"><g transform="translate(198.634025, 310.703288)"><g><path d="M 23.421875 -16.1875 C 24.046875 -11.539062 23.550781 -8.050781 21.9375 -5.71875 C 20.332031 -3.382812 17.410156 -1.929688 13.171875 -1.359375 C 8.734375 -0.765625 5.488281 -1.320312 3.4375 -3.03125 C 1.382812 -4.75 0.03125 -8.050781 -0.625 -12.9375 C -1.257812 -17.59375 -0.769531 -21.078125 0.84375 -23.390625 C 2.457031 -25.710938 5.382812 -27.160156 9.625 -27.734375 C 14.0625 -28.335938 17.304688 -27.78125 19.359375 -26.0625 C 21.410156 -24.34375 22.765625 -21.050781 23.421875 -16.1875 Z M 7.28125 -8.453125 C 7.726562 -7.816406 8.316406 -7.410156 9.046875 -7.234375 C 9.785156 -7.054688 10.898438 -7.066406 12.390625 -7.265625 C 13.878906 -7.472656 14.945312 -7.753906 15.59375 -8.109375 C 16.25 -8.472656 16.71875 -9.023438 17 -9.765625 C 17.1875 -10.335938 17.28125 -11.066406 17.28125 -11.953125 C 17.289062 -12.847656 17.207031 -13.972656 17.03125 -15.328125 C 16.84375 -16.710938 16.625 -17.835938 16.375 -18.703125 C 16.132812 -19.578125 15.847656 -20.257812 15.515625 -20.75 C 15.085938 -21.425781 14.503906 -21.859375 13.765625 -22.046875 C 13.035156 -22.234375 11.910156 -22.222656 10.390625 -22.015625 C 8.867188 -21.816406 7.78125 -21.53125 7.125 -21.15625 C 6.476562 -20.78125 6.035156 -20.207031 5.796875 -19.4375 C 5.597656 -18.875 5.5 -18.140625 5.5 -17.234375 C 5.5 -16.335938 5.59375 -15.195312 5.78125 -13.8125 C 5.957031 -12.457031 6.164062 -11.347656 6.40625 -10.484375 C 6.644531 -9.628906 6.9375 -8.953125 7.28125 -8.453125 Z M 7.28125 -8.453125 "/></g></g></g><g fill="#ffffff" fill-opacity="1"><g transform="translate(229.218289, 306.159306)"><g><path d="M 14.484375 -35.03125 L 25.25 -11.609375 L 19.84375 -9.125 L 13.390625 -23.1875 L 13.78125 -11.765625 L 9.0625 -9.59375 L 0.765625 -17.375 L 7.21875 -3.3125 L 1.78125 -0.828125 L -8.984375 -24.25 L -1.90625 -27.5 L 8.25 -17.875 L 7.6875 -31.90625 Z M 14.484375 -35.03125 "/></g></g></g><g fill="#ffffff" fill-opacity="1"><g transform="translate(259.740104, 291.090593)"><g><path d="M 4.9375 -4.34375 L -0.09375 0.078125 L -9.9375 -25.578125 L -4.96875 -29.9375 L 19.015625 -16.71875 L 14.03125 -12.328125 L 10.15625 -14.671875 L 3.125 -8.46875 Z M -3.390625 -22.90625 C -3.046875 -22.1875 -2.6875 -21.414062 -2.3125 -20.59375 C -1.945312 -19.78125 -1.347656 -18.441406 -0.515625 -16.578125 L 0.953125 -13.3125 L 5.609375 -17.421875 L 2.546875 -19.28125 C 1.585938 -19.820312 0.59375 -20.410156 -0.4375 -21.046875 C -1.476562 -21.691406 -2.460938 -22.3125 -3.390625 -22.90625 Z M -3.390625 -22.90625 "/></g></g></g><g fill="#ffffff" fill-opacity="1"><g transform="translate(280.977951, 271.511084)"><g><path d="M -9.359375 -31.859375 L -4.625 -28.59375 L -8.609375 -22.8125 L 7.890625 -11.453125 L 4.265625 -6.203125 L -12.234375 -17.5625 L -16.21875 -11.765625 L -20.953125 -15.03125 Z M -9.359375 -31.859375 "/></g></g></g><g fill="#ffffff" fill-opacity="1"><g transform="translate(293.941909, 251.523297)"><g><path d="M -19.859375 -18.453125 L 3.515625 -7.5625 L 0.828125 -1.78125 L -22.546875 -12.671875 Z M -19.859375 -18.453125 "/></g></g></g><g fill="#ffffff" fill-opacity="1"><g transform="translate(299.981576, 239.750633)"><g><path d="M -6.453125 -27.734375 C -1.898438 -26.609375 1.160156 -24.867188 2.734375 -22.515625 C 4.304688 -20.160156 4.582031 -16.910156 3.5625 -12.765625 C 2.488281 -8.421875 0.78125 -5.609375 -1.5625 -4.328125 C -3.914062 -3.046875 -7.484375 -2.992188 -12.265625 -4.171875 C -16.828125 -5.296875 -19.890625 -7.03125 -21.453125 -9.375 C -23.015625 -11.71875 -23.285156 -14.96875 -22.265625 -19.125 C -21.191406 -23.46875 -19.476562 -26.28125 -17.125 -27.5625 C -14.78125 -28.851562 -11.222656 -28.910156 -6.453125 -27.734375 Z M -5.1875 -9.859375 C -4.4375 -10.054688 -3.84375 -10.460938 -3.40625 -11.078125 C -2.976562 -11.691406 -2.582031 -12.726562 -2.21875 -14.1875 C -1.863281 -15.644531 -1.734375 -16.742188 -1.828125 -17.484375 C -1.921875 -18.234375 -2.257812 -18.863281 -2.84375 -19.375 C -3.3125 -19.769531 -3.957031 -20.132812 -4.78125 -20.46875 C -5.601562 -20.800781 -6.675781 -21.132812 -8 -21.46875 C -9.363281 -21.800781 -10.492188 -22.007812 -11.390625 -22.09375 C -12.285156 -22.1875 -13.03125 -22.164062 -13.625 -22.03125 C -14.40625 -21.882812 -15.015625 -21.503906 -15.453125 -20.890625 C -15.898438 -20.285156 -16.304688 -19.238281 -16.671875 -17.75 C -17.035156 -16.257812 -17.160156 -15.140625 -17.046875 -14.390625 C -16.941406 -13.648438 -16.582031 -13.023438 -15.96875 -12.515625 C -15.5 -12.128906 -14.847656 -11.769531 -14.015625 -11.4375 C -13.179688 -11.101562 -12.082031 -10.769531 -10.71875 -10.4375 C -9.394531 -10.101562 -8.289062 -9.890625 -7.40625 -9.796875 C -6.519531 -9.710938 -5.78125 -9.734375 -5.1875 -9.859375 Z M -5.1875 -9.859375 "/></g></g></g><g fill="#ffffff" fill-opacity="1"><g transform="translate(306.727311, 209.914648)"><g><path d="M -26.640625 -23.28125 L -0.875 -24.203125 L -0.65625 -18.125 L -15.15625 -7.40625 L -0.28125 -7.9375 L -0.078125 -1.96875 L -25.84375 -1.046875 L -26.046875 -7.09375 L -10.984375 -17.875 L -26.421875 -17.328125 Z M -26.640625 -23.28125 "/></g></g></g></svg>