<svg xmlns="http://www.w3.org/2000/svg" xmlns:xlink="http://www.w3.org/1999/xlink" width="500" zoomAndPan="magnify" viewBox="0 0 375 374.999991" height="500" preserveAspectRatio="xMidYMid meet" version="1.0"><defs><g/><clipPath id="26f48d69d6"><path d="M 114.671875 116.964844 L 274.421875 116.964844 L 274.421875 276.714844 L 114.671875 276.714844 Z M 114.671875 116.964844 " clip-rule="nonzero"/></clipPath></defs><g clip-path="url(#26f48d69d6)"><path fill="#000000" d="M 194.5 276.582031 C 194.5 276.582031 194.492188 276.582031 194.484375 276.582031 L 192.066406 276.546875 L 192.058594 276.546875 L 189.722656 276.492188 C 189.714844 276.492188 189.699219 276.492188 189.695312 276.492188 L 187.519531 276.40625 C 187.503906 276.40625 187.496094 276.40625 187.484375 276.40625 L 185.523438 276.289062 C 185.511719 276.289062 185.503906 276.289062 185.488281 276.289062 L 183.8125 276.140625 C 183.796875 276.140625 183.78125 276.140625 183.769531 276.132812 L 182.425781 275.964844 C 182.410156 275.964844 182.40625 275.964844 182.390625 275.957031 L 181.398438 275.769531 L 179.3125 275.203125 L 168.625 272.546875 C 168.617188 272.546875 168.617188 272.546875 168.609375 272.539062 C 168.605469 272.539062 168.597656 272.53125 168.589844 272.53125 L 167.484375 272.152344 C 167.46875 272.148438 167.457031 272.140625 167.441406 272.132812 L 157.105469 267.320312 L 155.816406 266.824219 L 154.941406 266.425781 C 154.914062 266.410156 154.886719 266.398438 154.859375 266.375 L 143.519531 258.527344 C 143.492188 258.507812 143.46875 258.492188 143.441406 258.464844 L 133.613281 248.71875 C 133.59375 248.699219 133.570312 248.679688 133.558594 248.648438 L 125.546875 237.25 C 125.535156 237.226562 125.519531 237.199219 125.507812 237.179688 L 119.589844 224.515625 C 119.574219 224.488281 119.5625 224.460938 119.554688 224.425781 L 119.53125 224.335938 L 115.929688 210.90625 C 115.921875 210.882812 115.917969 210.855469 115.917969 210.835938 L 115.894531 210.695312 C 115.886719 210.667969 115.882812 210.644531 115.882812 210.617188 L 114.679688 196.941406 L 114.679688 196.933594 L 114.671875 196.886719 C 114.671875 196.851562 114.671875 196.816406 114.679688 196.78125 L 114.679688 196.699219 L 115.875 182.980469 L 115.910156 182.742188 C 115.917969 182.714844 115.917969 182.6875 115.929688 182.660156 L 115.953125 182.582031 L 119.546875 169.15625 C 119.554688 169.128906 119.566406 169.09375 119.574219 169.066406 L 125.480469 156.40625 C 125.484375 156.386719 125.5 156.363281 125.515625 156.34375 C 125.515625 156.335938 125.519531 156.335938 125.519531 156.328125 L 133.523438 144.925781 C 133.539062 144.90625 133.558594 144.878906 133.578125 144.855469 L 143.40625 135.085938 C 143.429688 135.0625 143.457031 135.042969 143.484375 135.023438 L 154.816406 127.167969 C 154.835938 127.144531 154.863281 127.132812 154.894531 127.117188 L 155.753906 126.726562 L 157.046875 126.230469 L 167.394531 121.410156 C 167.40625 121.402344 167.421875 121.394531 167.433594 121.386719 L 168.539062 121.011719 C 168.5625 121.003906 168.582031 120.996094 168.605469 120.996094 L 168.609375 120.996094 L 181.320312 117.777344 L 182.34375 117.582031 C 182.347656 117.582031 182.363281 117.582031 182.371094 117.578125 L 183.726562 117.410156 C 183.734375 117.410156 183.742188 117.410156 183.746094 117.410156 L 185.449219 117.261719 C 185.453125 117.261719 185.453125 117.261719 185.460938 117.261719 L 187.441406 117.144531 C 187.449219 117.144531 187.449219 117.144531 187.457031 117.144531 L 189.652344 117.050781 L 189.660156 117.050781 L 192.007812 116.996094 L 192.023438 116.996094 L 194.4375 116.96875 L 194.441406 116.96875 L 196.878906 116.996094 C 196.882812 116.996094 196.882812 116.996094 196.890625 116.996094 L 199.234375 117.050781 L 199.242188 117.050781 L 201.445312 117.144531 C 201.453125 117.144531 201.453125 117.144531 201.460938 117.144531 L 203.433594 117.261719 C 203.4375 117.261719 203.4375 117.261719 203.445312 117.261719 L 205.132812 117.410156 C 205.144531 117.410156 205.160156 117.410156 205.171875 117.414062 L 206.515625 117.582031 C 206.523438 117.582031 206.53125 117.582031 206.542969 117.589844 L 207.539062 117.777344 L 209.652344 118.351562 L 220.316406 121.003906 L 221.417969 121.382812 L 233.964844 127.105469 C 233.972656 127.105469 233.980469 127.109375 233.980469 127.109375 C 234 127.117188 234.019531 127.132812 234.035156 127.144531 L 245.386719 135 C 245.410156 135.015625 245.429688 135.035156 245.453125 135.050781 L 255.285156 144.816406 C 255.308594 144.835938 255.328125 144.855469 255.34375 144.886719 L 263.351562 156.28125 C 263.351562 156.285156 263.359375 156.285156 263.359375 156.292969 C 263.371094 156.316406 263.378906 156.335938 263.394531 156.355469 L 269.3125 169.011719 C 269.324219 169.039062 269.332031 169.066406 269.347656 169.101562 L 272.976562 182.628906 C 272.984375 182.644531 272.984375 182.664062 272.992188 182.679688 C 272.992188 182.6875 272.992188 182.695312 272.992188 182.699219 L 273.011719 182.882812 C 273.011719 182.894531 273.019531 182.917969 273.019531 182.929688 L 274.222656 196.738281 C 274.222656 196.769531 274.222656 196.789062 274.222656 196.808594 L 273.027344 210.554688 C 273.027344 210.570312 273.027344 210.574219 273.019531 210.589844 C 273.019531 210.597656 273.019531 210.605469 273.019531 210.605469 L 273 210.765625 C 273 210.773438 273 210.785156 272.992188 210.792969 C 272.992188 210.808594 272.984375 210.828125 272.984375 210.839844 L 269.359375 224.371094 C 269.355469 224.398438 269.339844 224.433594 269.324219 224.460938 L 263.414062 237.128906 C 263.402344 237.15625 263.386719 237.179688 263.371094 237.207031 L 255.371094 248.609375 C 255.355469 248.628906 255.335938 248.65625 255.316406 248.671875 L 245.488281 258.441406 C 245.464844 258.464844 245.4375 258.484375 245.410156 258.507812 L 234.070312 266.363281 C 234.050781 266.375 234.023438 266.390625 234 266.402344 L 221.492188 272.117188 L 220.351562 272.511719 C 220.347656 272.511719 220.332031 272.515625 220.324219 272.515625 L 216.90625 273.382812 L 209.644531 275.183594 L 207.582031 275.742188 L 206.558594 275.9375 C 206.550781 275.9375 206.542969 275.9375 206.539062 275.9375 C 206.53125 275.9375 206.523438 275.9375 206.523438 275.9375 L 205.171875 276.105469 C 205.160156 276.105469 205.144531 276.105469 205.132812 276.113281 L 203.460938 276.257812 C 203.445312 276.257812 203.4375 276.257812 203.425781 276.257812 L 201.472656 276.378906 C 201.460938 276.378906 201.453125 276.378906 201.4375 276.378906 L 199.261719 276.46875 C 199.257812 276.46875 199.242188 276.46875 199.234375 276.46875 L 196.898438 276.527344 L 196.890625 276.527344 L 194.472656 276.558594 C 194.511719 276.582031 194.507812 276.582031 194.5 276.582031 Z M 192.269531 275.65625 L 194.066406 275.671875 L 194.066406 274.054688 L 190.699219 274.035156 Z M 194.945312 274.054688 L 194.945312 275.671875 L 196.746094 275.65625 L 198.3125 274.027344 Z M 189.839844 275.609375 L 191.007812 275.636719 L 189.457031 274.019531 L 186.785156 273.964844 Z M 199.558594 274.015625 L 198.003906 275.628906 L 199.171875 275.601562 L 202.230469 273.953125 Z M 187.617188 275.519531 L 187.832031 275.523438 L 184.847656 273.917969 L 183.257812 273.851562 Z M 204.171875 273.910156 L 201.179688 275.523438 L 201.390625 275.519531 L 205.753906 273.851562 Z M 180.25 273.734375 L 181.300781 274.0625 L 180.480469 273.75 Z M 208.53125 273.734375 L 207.726562 274.042969 L 208.761719 273.71875 Z M 189.9375 273.140625 L 194.066406 273.167969 L 194.066406 269.035156 L 188.007812 268.992188 Z M 194.953125 269.035156 L 194.953125 273.167969 L 199.082031 273.132812 L 201.011719 268.992188 Z M 185.160156 273.035156 L 188.953125 273.117188 L 187.027344 268.984375 L 181.382812 268.867188 Z M 201.992188 268.976562 L 200.066406 273.113281 L 203.859375 273.027344 L 207.636719 268.859375 Z M 180.734375 272.867188 L 183.914062 272.992188 L 180.152344 268.84375 L 175.253906 268.671875 Z M 208.859375 268.832031 L 205.097656 272.984375 L 208.28125 272.859375 L 213.757812 268.648438 Z M 176.789062 272.644531 L 179.167969 272.78125 L 173.730469 268.605469 L 169.847656 268.398438 Z M 215.28125 268.59375 L 209.847656 272.769531 L 212.21875 272.628906 L 219.15625 268.375 Z M 173.4375 272.363281 L 174.828125 272.480469 L 167.988281 268.292969 L 165.34375 268.082031 Z M 221.03125 268.269531 L 214.191406 272.46875 L 215.582031 272.347656 L 223.675781 268.0625 Z M 170.773438 272.042969 L 170.980469 272.070312 L 163.105469 267.902344 L 161.921875 267.769531 Z M 225.90625 267.878906 L 218.03125 272.046875 L 218.242188 272.019531 L 227.089844 267.738281 Z M 187.644531 268.109375 L 194.066406 268.152344 L 194.066406 261.570312 L 185.726562 261.519531 Z M 194.953125 261.570312 L 194.953125 268.152344 L 201.375 268.101562 L 203.292969 261.515625 Z M 180.621094 267.96875 L 186.714844 268.097656 L 184.796875 261.515625 L 176.863281 261.367188 Z M 204.214844 261.507812 L 202.296875 268.089844 L 208.390625 267.957031 L 212.148438 261.351562 Z M 174.109375 267.738281 L 179.585938 267.933594 L 175.835938 261.347656 L 168.671875 261.117188 Z M 213.183594 261.332031 L 209.433594 267.929688 L 214.902344 267.726562 L 220.339844 261.09375 Z M 168.308594 267.425781 L 172.90625 267.675781 L 167.484375 261.074219 L 161.40625 260.773438 Z M 221.519531 261.050781 L 216.101562 267.664062 L 220.695312 267.410156 L 227.59375 260.75 Z M 163.414062 267.039062 L 166.933594 267.320312 L 160.070312 260.703125 L 155.332031 260.367188 Z M 228.949219 260.675781 L 222.089844 267.300781 L 225.597656 267.019531 L 233.6875 260.339844 Z M 159.542969 266.597656 L 161.796875 266.859375 L 153.796875 260.246094 L 150.605469 259.917969 Z M 235.210938 260.21875 L 227.207031 266.835938 L 229.460938 266.578125 L 238.394531 259.890625 Z M 156.824219 266.125 L 157.613281 266.265625 L 148.878906 259.730469 L 147.449219 259.5 Z M 240.128906 259.703125 L 231.390625 266.234375 L 232.175781 266.097656 L 241.542969 259.464844 Z M 185.503906 260.632812 L 194.066406 260.679688 L 194.066406 251.824219 L 183.753906 251.777344 Z M 194.953125 251.824219 L 194.953125 260.679688 L 203.523438 260.625 L 205.273438 251.761719 Z M 176.402344 260.472656 L 184.59375 260.625 L 182.84375 251.769531 L 172.984375 251.617188 Z M 206.167969 251.757812 L 204.417969 260.613281 L 212.609375 260.457031 L 216.03125 251.59375 Z M 167.972656 260.199219 L 175.445312 260.445312 L 172.023438 251.59375 L 163.019531 251.351562 Z M 216.988281 251.582031 L 213.574219 260.429688 L 221.046875 260.183594 L 225.992188 251.328125 Z M 160.488281 259.835938 L 166.933594 260.148438 L 161.992188 251.308594 L 154.222656 250.988281 Z M 227.019531 251.292969 L 222.082031 260.136719 L 228.515625 259.8125 L 234.785156 250.964844 Z M 154.195312 259.394531 L 159.347656 259.757812 L 153.09375 250.9375 L 146.847656 250.558594 Z M 235.917969 250.910156 L 229.664062 259.738281 L 234.820312 259.367188 L 242.15625 250.523438 Z M 149.269531 258.890625 L 152.941406 259.269531 L 145.640625 250.484375 L 141.15625 250.085938 Z M 243.375 250.449219 L 236.070312 259.242188 L 239.738281 258.855469 L 247.859375 250.042969 Z M 145.839844 258.34375 L 147.855469 258.675781 L 139.820312 249.964844 L 137.265625 249.609375 Z M 249.179688 249.921875 L 241.148438 258.640625 L 243.15625 258.308594 L 251.726562 249.558594 Z M 144 257.785156 L 144.078125 257.808594 L 135.804688 249.378906 L 135.433594 249.273438 Z M 253.1875 249.335938 L 244.917969 257.773438 L 244.988281 257.75 L 253.550781 249.238281 Z M 183.601562 250.886719 L 194.066406 250.9375 L 194.066406 240.082031 L 182.132812 240.039062 Z M 194.953125 240.082031 L 194.953125 250.9375 L 205.417969 250.882812 L 206.886719 240.03125 Z M 172.675781 250.71875 L 182.707031 250.875 L 181.230469 240.023438 L 169.792969 239.886719 Z M 207.78125 240.019531 L 206.3125 250.867188 L 216.34375 250.707031 L 219.21875 239.878906 Z M 162.566406 250.449219 L 171.757812 250.699219 L 168.882812 239.878906 L 158.410156 239.65625 Z M 220.136719 239.855469 L 217.261719 250.679688 L 226.445312 250.417969 L 230.601562 239.621094 Z M 153.613281 250.078125 L 161.59375 250.414062 L 157.445312 239.625 L 148.351562 239.324219 Z M 231.566406 239.605469 L 227.417969 250.390625 L 235.398438 250.054688 L 240.660156 239.304688 Z M 146.121094 249.628906 L 152.597656 250.019531 L 147.34375 239.296875 L 139.964844 238.949219 Z M 241.652344 239.261719 L 236.40625 249.992188 L 242.882812 249.59375 L 249.027344 238.90625 Z M 140.292969 249.117188 L 145.042969 249.539062 L 138.917969 238.886719 L 133.503906 238.507812 Z M 250.082031 238.851562 L 243.953125 249.503906 L 248.695312 249.078125 L 255.488281 238.464844 Z M 136.292969 248.566406 L 139.148438 248.964844 L 132.398438 238.417969 L 129.117188 238.050781 Z M 256.601562 238.382812 L 249.851562 248.929688 L 252.699219 248.53125 L 259.867188 238.015625 Z M 134.195312 248.011719 L 134.992188 248.238281 L 127.941406 237.914062 L 126.933594 237.6875 Z M 261.050781 237.855469 L 254.007812 248.1875 L 254.796875 247.972656 L 262.050781 237.632812 Z M 182.027344 239.152344 L 194.066406 239.191406 L 194.066406 226.726562 L 180.914062 226.691406 Z M 194.945312 226.726562 L 194.945312 239.191406 L 206.984375 239.136719 L 208.097656 226.683594 Z M 169.589844 239.003906 L 181.140625 239.144531 L 180.027344 226.691406 L 167.421875 226.585938 Z M 208.984375 226.683594 L 207.875 239.136719 L 219.414062 238.988281 L 221.585938 226.574219 Z M 158.097656 238.757812 L 168.6875 238.984375 L 166.511719 226.582031 L 154.957031 226.414062 Z M 222.492188 226.558594 L 220.324219 238.96875 L 230.910156 238.730469 L 234.042969 226.378906 Z M 147.953125 238.429688 L 157.171875 238.730469 L 154.03125 226.390625 L 143.980469 226.167969 Z M 234.957031 226.363281 L 231.824219 238.703125 L 241.042969 238.394531 L 245.003906 226.132812 Z M 139.496094 238.03125 L 147.015625 238.386719 L 143.058594 226.140625 L 134.875 225.875 Z M 245.949219 226.113281 L 241.988281 238.359375 L 249.5 237.996094 L 254.125 225.839844 Z M 132.957031 237.582031 L 138.523438 237.976562 L 133.90625 225.847656 L 127.855469 225.550781 Z M 255.089844 225.796875 L 250.480469 237.933594 L 256.042969 237.542969 L 261.140625 225.503906 Z M 128.507812 237.101562 L 131.957031 237.484375 L 126.863281 225.496094 L 123.113281 225.210938 Z M 262.121094 225.449219 L 257.042969 237.4375 L 260.484375 237.050781 L 265.871094 225.152344 Z M 126.21875 236.613281 L 127.4375 236.882812 L 122.09375 225.105469 L 120.734375 224.886719 Z M 266.882812 225.054688 L 261.554688 236.835938 L 262.765625 236.5625 L 268.234375 224.839844 Z M 180.84375 225.8125 L 194.058594 225.847656 L 194.058594 212.246094 L 180.152344 212.234375 Z M 194.945312 212.246094 L 194.945312 225.847656 L 208.160156 225.804688 L 208.847656 212.226562 Z M 167.289062 225.699219 L 179.964844 225.804688 L 179.265625 212.226562 L 165.929688 212.171875 Z M 209.734375 212.21875 L 209.050781 225.796875 L 221.722656 225.683594 L 223.074219 212.15625 Z M 154.773438 225.523438 L 166.398438 225.691406 L 165.042969 212.171875 L 152.816406 212.078125 Z M 223.957031 212.148438 L 222.605469 225.671875 L 234.222656 225.496094 L 236.167969 212.058594 Z M 143.742188 225.28125 L 153.871094 225.503906 L 151.921875 212.074219 L 141.28125 211.953125 Z M 237.070312 212.042969 L 235.125 225.476562 L 245.25 225.246094 L 247.703125 211.925781 Z M 134.574219 224.984375 L 142.839844 225.257812 L 140.378906 211.953125 L 131.703125 211.8125 Z M 248.613281 211.910156 L 246.15625 225.214844 L 254.417969 224.945312 L 257.289062 211.765625 Z M 127.519531 224.648438 L 133.664062 224.945312 L 130.796875 211.785156 L 124.359375 211.632812 Z M 258.195312 211.742188 L 255.335938 224.902344 L 261.46875 224.601562 L 264.625 211.582031 Z M 122.75 224.292969 L 126.589844 224.585938 L 123.4375 211.605469 L 119.414062 211.449219 Z M 265.542969 211.554688 L 262.394531 224.539062 L 266.226562 224.238281 L 269.554688 211.394531 Z M 120.335938 223.929688 L 121.800781 224.160156 L 118.476562 211.394531 L 116.9375 211.269531 Z M 270.492188 211.332031 L 267.179688 224.113281 L 268.632812 223.878906 L 272.039062 211.140625 Z M 180.117188 211.34375 L 194.050781 211.359375 L 194.042969 197.179688 L 179.871094 197.1875 Z M 194.941406 197.179688 L 194.945312 211.359375 L 208.882812 211.339844 L 209.113281 197.179688 Z M 165.867188 211.289062 L 179.234375 211.34375 L 179 197.1875 L 165.40625 197.195312 Z M 209.992188 197.179688 L 209.761719 211.339844 L 223.125 211.273438 L 223.578125 197.179688 Z M 152.726562 211.199219 L 164.980469 211.289062 L 164.519531 197.195312 L 152.058594 197.203125 Z M 224.464844 197.171875 L 224.011719 211.269531 L 236.265625 211.171875 L 236.925781 197.171875 Z M 141.160156 211.074219 L 151.835938 211.191406 L 151.171875 197.203125 L 140.324219 197.207031 Z M 237.8125 197.171875 L 237.15625 211.164062 L 247.824219 211.039062 L 248.65625 197.171875 Z M 131.566406 210.917969 L 140.28125 211.058594 L 139.441406 197.207031 L 130.59375 197.214844 Z M 249.542969 197.171875 L 248.710938 211.023438 L 257.421875 210.875 L 258.386719 197.171875 Z M 124.199219 210.742188 L 130.675781 210.898438 L 129.703125 197.214844 L 123.128906 197.222656 Z M 259.28125 197.171875 L 258.316406 210.855469 L 264.785156 210.695312 L 265.847656 197.171875 Z M 119.238281 210.554688 L 123.304688 210.714844 L 122.234375 197.222656 L 118.105469 197.230469 Z M 266.738281 197.171875 L 265.675781 210.660156 L 269.730469 210.5 L 270.859375 197.171875 Z M 116.75 210.367188 L 118.34375 210.5 L 117.21875 197.230469 L 115.59375 197.234375 Z M 271.746094 197.171875 L 270.625 210.421875 L 272.222656 210.226562 L 273.355469 197.179688 Z M 116.75 183.210938 L 115.59375 196.347656 L 117.21875 196.339844 L 118.335938 183.070312 Z M 119.230469 183.015625 L 118.105469 196.339844 L 122.234375 196.332031 L 123.296875 182.847656 Z M 124.183594 182.820312 L 123.121094 196.339844 L 129.695312 196.332031 L 130.664062 182.652344 Z M 131.550781 182.628906 L 130.585938 196.328125 L 139.433594 196.320312 L 140.257812 182.46875 Z M 141.15625 182.460938 L 140.324219 196.328125 L 151.171875 196.320312 L 151.828125 182.328125 Z M 152.71875 182.316406 L 152.058594 196.3125 L 164.519531 196.304688 L 164.972656 182.21875 Z M 165.863281 182.210938 L 165.40625 196.304688 L 179 196.300781 L 179.230469 182.140625 Z M 180.109375 182.140625 L 179.878906 196.300781 L 194.050781 196.292969 L 194.042969 182.113281 Z M 194.933594 182.121094 L 194.941406 196.300781 L 209.113281 196.292969 L 208.875 182.132812 Z M 271.746094 196.292969 L 273.355469 196.300781 L 272.207031 183.246094 L 270.621094 183.042969 Z M 209.753906 182.132812 L 209.992188 196.292969 L 223.578125 196.292969 L 223.109375 182.195312 Z M 266.738281 196.285156 L 270.859375 196.285156 L 269.722656 182.960938 L 265.667969 182.792969 Z M 224.003906 182.195312 L 224.464844 196.285156 L 236.925781 196.285156 L 236.253906 182.289062 Z M 259.28125 196.285156 L 265.847656 196.285156 L 264.773438 182.761719 L 258.300781 182.601562 Z M 237.140625 182.292969 L 237.8125 196.285156 L 248.65625 196.285156 L 247.816406 182.421875 Z M 249.542969 196.285156 L 258.390625 196.285156 L 257.414062 182.582031 L 248.703125 182.433594 Z M 270.480469 182.132812 L 272.03125 182.328125 L 268.613281 169.589844 L 267.15625 169.355469 Z M 120.324219 169.648438 L 116.9375 182.308594 L 118.476562 182.175781 L 121.785156 169.410156 Z M 122.730469 169.277344 L 119.398438 182.121094 L 123.421875 181.953125 L 126.570312 168.976562 Z M 265.535156 181.902344 L 269.550781 182.0625 L 266.207031 169.222656 L 262.371094 168.921875 Z M 127.5 168.90625 L 124.34375 181.925781 L 130.78125 181.757812 L 133.636719 168.605469 Z M 258.183594 181.714844 L 264.609375 181.875 L 261.441406 168.855469 L 255.308594 168.554688 Z M 134.550781 168.5625 L 131.691406 181.742188 L 140.363281 181.589844 L 142.820312 168.277344 Z M 248.605469 181.546875 L 257.273438 181.691406 L 254.398438 168.515625 L 246.136719 168.242188 Z M 143.730469 168.253906 L 141.273438 181.574219 L 151.914062 181.441406 L 153.851562 168.011719 Z M 237.0625 181.414062 L 247.695312 181.539062 L 245.226562 168.21875 L 235.105469 167.988281 Z M 154.753906 167.996094 L 152.808594 181.433594 L 165.027344 181.335938 L 166.371094 167.816406 Z M 223.949219 181.308594 L 236.167969 181.398438 L 234.210938 167.960938 L 222.589844 167.785156 Z M 167.265625 167.800781 L 165.925781 181.324219 L 179.257812 181.257812 L 179.941406 167.6875 Z M 209.726562 181.253906 L 223.058594 181.308594 L 221.703125 167.785156 L 209.035156 167.683594 Z M 180.824219 167.683594 L 180.136719 181.257812 L 194.042969 181.230469 L 194.039062 167.640625 Z M 194.933594 181.230469 L 208.839844 181.246094 L 208.140625 167.667969 L 194.925781 167.632812 Z M 126.191406 156.964844 L 120.722656 168.683594 L 122.078125 168.464844 L 127.410156 156.6875 Z M 266.863281 168.417969 L 268.214844 168.632812 L 262.734375 156.917969 L 261.527344 156.636719 Z M 128.480469 156.46875 L 123.101562 168.367188 L 126.851562 168.066406 L 131.929688 156.078125 Z M 262.101562 168.019531 L 265.84375 168.3125 L 260.449219 156.421875 L 257.007812 156.027344 Z M 132.929688 155.972656 L 127.828125 168.003906 L 133.878906 167.703125 L 138.488281 155.574219 Z M 255.070312 167.660156 L 261.113281 167.960938 L 256.007812 155.929688 L 250.445312 155.53125 Z M 139.460938 155.511719 L 134.84375 167.667969 L 143.03125 167.386719 L 146.980469 155.140625 Z M 245.925781 167.347656 L 254.105469 167.617188 L 249.472656 155.46875 L 241.960938 155.105469 Z M 147.925781 155.097656 L 143.96875 167.359375 L 154.019531 167.121094 L 157.144531 154.78125 Z M 234.9375 167.09375 L 244.984375 167.324219 L 241.015625 155.0625 L 231.796875 154.753906 Z M 158.070312 154.753906 L 154.933594 167.101562 L 166.492188 166.917969 L 168.660156 154.515625 Z M 222.472656 166.90625 L 234.023438 167.082031 L 230.878906 154.734375 L 220.296875 154.503906 Z M 169.5625 154.503906 L 167.394531 166.914062 L 180 166.800781 L 181.105469 154.355469 Z M 208.964844 166.785156 L 221.570312 166.890625 L 219.394531 154.488281 L 207.851562 154.347656 Z M 182 154.34375 L 180.894531 166.792969 L 194.042969 166.75 L 194.039062 154.292969 Z M 194.925781 166.75 L 208.078125 166.785156 L 206.957031 154.335938 L 194.917969 154.292969 Z M 134.160156 145.554688 L 126.90625 155.894531 L 127.914062 155.664062 L 134.949219 145.332031 Z M 261.023438 155.617188 L 262.023438 155.847656 L 254.761719 145.523438 L 253.972656 145.296875 Z M 136.257812 144.988281 L 129.089844 155.503906 L 132.367188 155.132812 L 139.113281 144.585938 Z M 256.566406 155.089844 L 259.839844 155.460938 L 252.664062 144.953125 L 249.816406 144.550781 Z M 140.257812 144.429688 L 133.472656 155.042969 L 138.886719 154.648438 L 145.007812 144.003906 Z M 250.054688 154.617188 L 255.460938 155 L 248.664062 144.394531 L 243.917969 143.96875 Z M 146.085938 143.914062 L 139.945312 154.601562 L 147.324219 154.238281 L 152.570312 143.515625 Z M 241.625 154.203125 L 248.996094 154.558594 L 242.847656 143.878906 L 236.371094 143.480469 Z M 153.578125 143.449219 L 148.324219 154.195312 L 157.417969 153.886719 L 161.566406 143.109375 Z M 231.53125 153.867188 L 240.617188 154.167969 L 235.351562 143.421875 L 227.371094 143.085938 Z M 162.523438 143.074219 L 158.375 153.867188 L 168.847656 153.628906 L 171.714844 142.808594 Z M 220.109375 153.613281 L 230.574219 153.847656 L 226.410156 143.058594 L 217.226562 142.808594 Z M 172.640625 142.785156 L 169.773438 153.613281 L 181.207031 153.46875 L 182.671875 142.625 Z M 207.746094 153.453125 L 219.183594 153.59375 L 216.304688 142.773438 L 206.273438 142.613281 Z M 183.566406 142.613281 L 182.105469 153.453125 L 194.039062 153.398438 L 194.03125 142.546875 Z M 194.917969 153.40625 L 206.851562 153.445312 L 205.375 142.605469 L 194.910156 142.554688 Z M 143.960938 135.777344 L 135.40625 144.289062 L 135.769531 144.1875 L 144.03125 135.757812 Z M 253.152344 144.144531 L 253.511719 144.242188 L 244.949219 135.742188 L 244.886719 135.722656 Z M 145.800781 135.21875 L 137.230469 143.960938 L 139.785156 143.597656 L 147.8125 134.890625 Z M 249.136719 143.554688 L 251.683594 143.917969 L 243.109375 135.183594 L 241.101562 134.855469 Z M 149.226562 134.660156 L 141.113281 143.464844 L 145.597656 143.058594 L 152.890625 134.273438 Z M 243.332031 143.023438 L 247.816406 143.429688 L 239.695312 134.628906 L 236.027344 134.246094 Z M 154.152344 134.148438 L 146.8125 142.980469 L 153.054688 142.597656 L 159.308594 133.769531 Z M 235.875 142.5625 L 242.113281 142.949219 L 234.769531 134.121094 L 229.621094 133.75 Z M 160.445312 133.691406 L 154.179688 142.542969 L 161.953125 142.207031 L 166.890625 133.371094 Z M 226.984375 142.183594 L 234.757812 142.515625 L 228.480469 133.671875 L 222.046875 133.351562 Z M 167.933594 133.320312 L 162.988281 142.171875 L 171.988281 141.914062 L 175.394531 133.070312 Z M 216.953125 141.90625 L 225.949219 142.15625 L 220.996094 133.300781 L 213.527344 133.054688 Z M 176.359375 133.042969 L 172.949219 141.898438 L 182.808594 141.738281 L 184.550781 132.886719 Z M 206.132812 141.730469 L 215.996094 141.882812 L 212.566406 133.035156 L 204.375 132.882812 Z M 185.453125 132.875 L 183.714844 141.730469 L 194.023438 141.675781 L 194.015625 132.824219 Z M 194.910156 141.667969 L 205.222656 141.714844 L 203.46875 132.867188 L 194.90625 132.820312 Z M 156.773438 127.425781 L 147.414062 134.050781 L 148.835938 133.820312 L 157.558594 127.285156 Z M 240.078125 133.785156 L 241.492188 134.015625 L 232.125 127.40625 L 231.347656 127.265625 Z M 159.496094 126.941406 L 150.5625 133.621094 L 153.746094 133.289062 L 161.742188 126.675781 Z M 235.167969 133.265625 L 238.34375 133.601562 L 229.40625 126.929688 L 227.160156 126.667969 Z M 163.363281 126.503906 L 155.285156 133.175781 L 160.019531 132.832031 L 166.875 126.214844 Z M 228.90625 132.804688 L 233.636719 133.148438 L 225.550781 126.480469 L 222.039062 126.203125 Z M 168.261719 126.109375 L 161.363281 132.761719 L 167.441406 132.453125 L 172.855469 125.851562 Z M 221.480469 132.433594 L 227.550781 132.734375 L 220.648438 126.089844 L 216.050781 125.835938 Z M 174.058594 125.789062 L 168.625 132.414062 L 175.789062 132.175781 L 179.53125 125.585938 Z M 213.132812 132.160156 L 220.296875 132.398438 L 214.855469 125.78125 L 209.386719 125.585938 Z M 180.570312 125.550781 L 176.824219 132.148438 L 184.761719 131.992188 L 186.671875 125.417969 Z M 204.171875 131.984375 L 212.105469 132.132812 L 208.347656 125.535156 L 202.257812 125.410156 Z M 187.59375 125.402344 L 185.683594 131.984375 L 194.023438 131.929688 L 194.015625 125.355469 Z M 194.90625 131.929688 L 203.242188 131.980469 L 201.320312 125.398438 L 194.898438 125.355469 Z M 170.714844 121.5 L 161.882812 125.773438 L 163.050781 125.640625 L 170.917969 121.472656 Z M 225.859375 125.621094 L 227.027344 125.753906 L 218.183594 121.488281 L 217.980469 121.457031 Z M 173.382812 121.179688 L 165.292969 125.460938 L 167.933594 125.25 L 174.765625 121.058594 Z M 220.984375 125.222656 L 223.621094 125.433594 L 215.527344 121.15625 L 214.140625 121.039062 Z M 176.738281 120.890625 L 169.808594 125.136719 L 173.683594 124.921875 L 179.109375 120.753906 Z M 215.234375 124.90625 L 219.109375 125.125 L 212.167969 120.886719 L 209.796875 120.746094 Z M 180.683594 120.660156 L 175.214844 124.859375 L 180.101562 124.675781 L 183.859375 120.535156 Z M 208.8125 124.667969 L 213.699219 124.84375 L 208.222656 120.648438 L 205.039062 120.519531 Z M 185.105469 120.484375 L 181.335938 124.648438 L 186.980469 124.53125 L 188.902344 120.402344 Z M 201.941406 124.523438 L 207.585938 124.640625 L 203.804688 120.480469 L 200.011719 120.394531 Z M 189.882812 120.382812 L 187.957031 124.515625 L 194.015625 124.472656 L 194.007812 120.351562 Z M 194.90625 124.472656 L 200.960938 124.515625 L 199.03125 120.382812 L 194.90625 120.351562 Z M 181.179688 119.492188 L 180.214844 119.792969 L 180.425781 119.78125 Z M 208.476562 119.773438 L 208.683594 119.785156 L 207.734375 119.492188 Z M 187.558594 118.015625 L 183.210938 119.675781 L 184.824219 119.589844 L 187.761719 118.011719 Z M 204.125 119.605469 L 205.699219 119.667969 L 201.347656 118.011719 L 201.144531 118.003906 Z M 189.785156 117.925781 L 186.742188 119.5625 L 189.40625 119.5 L 190.953125 117.890625 Z M 199.5 119.5 L 202.164062 119.554688 L 199.117188 117.917969 L 197.949219 117.890625 Z M 192.210938 117.871094 L 190.652344 119.492188 L 194.007812 119.464844 L 194.007812 117.855469 Z M 194.898438 119.464844 L 198.253906 119.484375 L 196.6875 117.871094 L 194.890625 117.855469 Z M 194.898438 119.464844 " fill-opacity="1" fill-rule="nonzero"/></g><g fill="#000000" fill-opacity="1"><g transform="translate(111.277349, 178.250832)"><g><path d="M 4.765625 -13.546875 L 0.859375 -2.4375 L -30.96875 -13.625 L -27.0625 -24.734375 C -25.914062 -27.984375 -24.734375 -30.46875 -23.515625 -32.1875 C -22.304688 -33.914062 -20.910156 -35.148438 -19.328125 -35.890625 C -17.742188 -36.617188 -15.847656 -36.890625 -13.640625 -36.703125 C -11.441406 -36.523438 -8.785156 -35.890625 -5.671875 -34.796875 C -0.160156 -32.847656 3.4375 -30.1875 5.125 -26.8125 C 6.8125 -23.445312 6.691406 -19.023438 4.765625 -13.546875 Z M -15.734375 -27.765625 C -16.597656 -27.546875 -17.351562 -27.035156 -18 -26.234375 C -18.644531 -25.429688 -19.296875 -24.097656 -19.953125 -22.234375 L -21.09375 -18.984375 L -3.734375 -12.890625 L -2.59375 -16.140625 C -1.945312 -17.960938 -1.613281 -19.382812 -1.59375 -20.40625 C -1.582031 -21.425781 -1.828125 -22.3125 -2.328125 -23.0625 C -2.816406 -23.726562 -3.554688 -24.347656 -4.546875 -24.921875 C -5.535156 -25.503906 -6.863281 -26.085938 -8.53125 -26.671875 C -10.21875 -27.265625 -11.628906 -27.644531 -12.765625 -27.8125 C -13.910156 -27.988281 -14.898438 -27.972656 -15.734375 -27.765625 Z M -15.734375 -27.765625 "/></g></g></g><g fill="#000000" fill-opacity="1"><g transform="translate(119.387807, 152.240923)"><g><path d="M 5.46875 -6.640625 L -0.09375 0.125 L -18.203125 -30.953125 L -12.6875 -37.65625 L 21.078125 -25.578125 L 15.53125 -18.84375 L 10.046875 -21.078125 L 2.234375 -11.59375 Z M -9.171875 -28.890625 C -8.578125 -28.023438 -7.953125 -27.101562 -7.296875 -26.125 C -6.640625 -25.144531 -5.582031 -23.539062 -4.125 -21.3125 L -1.578125 -17.390625 L 3.59375 -23.65625 L -0.734375 -25.421875 C -2.085938 -25.929688 -3.5 -26.488281 -4.96875 -27.09375 C -6.4375 -27.695312 -7.835938 -28.296875 -9.171875 -28.890625 Z M -9.171875 -28.890625 "/></g></g></g><g fill="#000000" fill-opacity="1"><g transform="translate(136.227336, 130.110737)"><g><path d="M 10.6875 -45.03125 L 27.484375 -15.765625 L 20.578125 -11.8125 L -0.6875 -22.046875 L 9 -5.15625 L 2.234375 -1.28125 L -14.5625 -30.546875 L -7.703125 -34.484375 L 14 -23.59375 L 3.921875 -41.15625 Z M 10.6875 -45.03125 "/></g></g></g><g fill="#000000" fill-opacity="1"><g transform="translate(163.022651, 115.712585)"><g><path d="M 1.8125 -35.40625 L 10.546875 -2.828125 L 2.484375 -0.671875 L -6.25 -33.25 Z M 1.8125 -35.40625 "/></g></g></g><g fill="#000000" fill-opacity="1"><g transform="translate(172.917399, 111.92781)"><g><path d="M 25.5 -8.8125 L 25.8125 -1.015625 L 2.578125 -0.109375 L 1.234375 -33.8125 L 23.984375 -34.703125 L 24.296875 -27.1875 L 9.875 -26.625 L 10.09375 -21.03125 L 22.515625 -21.515625 L 22.78125 -14.515625 L 10.359375 -14.03125 L 10.59375 -8.234375 Z M 25.5 -8.8125 "/></g></g></g><g fill="#000000" fill-opacity="1"><g transform="translate(195.974992, 110.60668)"><g><path d="M 25.25 -1.828125 L 23.390625 5.75 L 2.5 0.609375 L 10.5625 -32.140625 L 18.671875 -30.140625 L 12.46875 -4.96875 Z M 25.25 -1.828125 "/></g></g></g><g fill="#000000" fill-opacity="1"><g transform="translate(122.499424, 280.530281)"><g><path d="M 5.296875 3.90625 L -0.09375 -0.078125 L 22.875 -15.15625 L 28.203125 -11.234375 L 20.390625 15.03125 L 15.03125 11.078125 L 16.5 6.8125 L 8.953125 1.25 Z M 21.671875 -8.1875 C 21.035156 -7.695312 20.359375 -7.179688 19.640625 -6.640625 C 18.921875 -6.097656 17.738281 -5.226562 16.09375 -4.03125 L 13.203125 -1.90625 L 18.203125 1.78125 L 19.375 -1.609375 C 19.707031 -2.660156 20.070312 -3.757812 20.46875 -4.90625 C 20.875 -6.050781 21.273438 -7.144531 21.671875 -8.1875 Z M 21.671875 -8.1875 "/></g></g></g><g fill="#000000" fill-opacity="1"><g transform="translate(146.161993, 297.386506)"><g><path d="M 20.234375 -3.859375 L 25.59375 -17.78125 L 31.546875 -15.5 L 26.1875 -1.578125 C 24.84375 1.929688 22.976562 4.234375 20.59375 5.328125 C 18.21875 6.421875 15.3125 6.3125 11.875 5 C 8.269531 3.601562 5.957031 1.757812 4.9375 -0.53125 C 3.914062 -2.820312 4.113281 -5.8125 5.53125 -9.5 L 10.890625 -23.421875 L 16.84375 -21.140625 L 11.484375 -7.21875 C 10.742188 -5.269531 10.539062 -3.835938 10.875 -2.921875 C 11.21875 -2.015625 12.257812 -1.222656 14 -0.546875 C 15.707031 0.109375 16.988281 0.207031 17.84375 -0.25 C 18.695312 -0.707031 19.492188 -1.910156 20.234375 -3.859375 Z M 20.234375 -3.859375 "/></g></g></g><g fill="#000000" fill-opacity="1"><g transform="translate(173.556703, 307.169765)"><g><path d="M 23.84375 -23.125 L 23.171875 -17.421875 L 16.1875 -18.25 L 13.8125 1.640625 L 7.484375 0.890625 L 9.859375 -19 L 2.875 -19.828125 L 3.546875 -25.53125 Z M 23.84375 -23.125 "/></g></g></g><g fill="#000000" fill-opacity="1"><g transform="translate(198.379474, 309.996213)"><g><path d="M 23.421875 -16.1875 C 24.046875 -11.539062 23.550781 -8.050781 21.9375 -5.71875 C 20.332031 -3.382812 17.410156 -1.929688 13.171875 -1.359375 C 8.734375 -0.765625 5.488281 -1.320312 3.4375 -3.03125 C 1.382812 -4.75 0.03125 -8.050781 -0.625 -12.9375 C -1.257812 -17.59375 -0.769531 -21.078125 0.84375 -23.390625 C 2.457031 -25.710938 5.382812 -27.160156 9.625 -27.734375 C 14.0625 -28.335938 17.300781 -27.78125 19.34375 -26.0625 C 21.394531 -24.34375 22.753906 -21.050781 23.421875 -16.1875 Z M 7.28125 -8.453125 C 7.726562 -7.816406 8.316406 -7.410156 9.046875 -7.234375 C 9.785156 -7.054688 10.898438 -7.066406 12.390625 -7.265625 C 13.878906 -7.472656 14.945312 -7.757812 15.59375 -8.125 C 16.25 -8.488281 16.71875 -9.035156 17 -9.765625 C 17.1875 -10.335938 17.28125 -11.066406 17.28125 -11.953125 C 17.289062 -12.847656 17.207031 -13.972656 17.03125 -15.328125 C 16.84375 -16.710938 16.625 -17.835938 16.375 -18.703125 C 16.132812 -19.578125 15.847656 -20.257812 15.515625 -20.75 C 15.078125 -21.425781 14.492188 -21.859375 13.765625 -22.046875 C 13.035156 -22.234375 11.910156 -22.222656 10.390625 -22.015625 C 8.867188 -21.816406 7.78125 -21.53125 7.125 -21.15625 C 6.46875 -20.78125 6.023438 -20.207031 5.796875 -19.4375 C 5.597656 -18.875 5.5 -18.140625 5.5 -17.234375 C 5.5 -16.335938 5.59375 -15.195312 5.78125 -13.8125 C 5.957031 -12.457031 6.164062 -11.347656 6.40625 -10.484375 C 6.644531 -9.628906 6.9375 -8.953125 7.28125 -8.453125 Z M 7.28125 -8.453125 "/></g></g></g><g fill="#000000" fill-opacity="1"><g transform="translate(228.740996, 305.514146)"><g><path d="M 14.484375 -35.03125 L 25.25 -11.609375 L 19.84375 -9.125 L 13.390625 -23.1875 L 13.78125 -11.765625 L 9.0625 -9.59375 L 0.765625 -17.375 L 7.21875 -3.3125 L 1.78125 -0.828125 L -8.984375 -24.25 L -1.90625 -27.5 L 8.25 -17.875 L 7.6875 -31.90625 Z M 14.484375 -35.03125 "/></g></g></g><g fill="#000000" fill-opacity="1"><g transform="translate(259.072326, 290.56906)"><g><path d="M 4.9375 -4.34375 L -0.09375 0.078125 L -9.9375 -25.578125 L -4.96875 -29.9375 L 19.03125 -16.71875 L 14.03125 -12.328125 L 10.15625 -14.671875 L 3.125 -8.46875 Z M -3.390625 -22.90625 C -3.046875 -22.195312 -2.6875 -21.429688 -2.3125 -20.609375 C -1.945312 -19.785156 -1.347656 -18.441406 -0.515625 -16.578125 L 0.953125 -13.3125 L 5.609375 -17.421875 L 2.546875 -19.28125 C 1.585938 -19.820312 0.59375 -20.410156 -0.4375 -21.046875 C -1.476562 -21.691406 -2.460938 -22.3125 -3.390625 -22.90625 Z M -3.390625 -22.90625 "/></g></g></g><g fill="#000000" fill-opacity="1"><g transform="translate(280.183486, 271.135243)"><g><path d="M -9.359375 -31.859375 L -4.625 -28.59375 L -8.609375 -22.8125 L 7.890625 -11.453125 L 4.265625 -6.203125 L -12.234375 -17.5625 L -16.21875 -11.765625 L -20.953125 -15.03125 Z M -9.359375 -31.859375 "/></g></g></g><g fill="#000000" fill-opacity="1"><g transform="translate(293.081549, 251.260915)"><g><path d="M -19.84375 -18.453125 L 3.53125 -7.5625 L 0.828125 -1.78125 L -22.546875 -12.671875 Z M -19.84375 -18.453125 "/></g></g></g><g fill="#000000" fill-opacity="1"><g transform="translate(299.072096, 239.630955)"><g><path d="M -6.453125 -27.734375 C -1.898438 -26.609375 1.160156 -24.867188 2.734375 -22.515625 C 4.304688 -20.160156 4.582031 -16.910156 3.5625 -12.765625 C 2.488281 -8.421875 0.78125 -5.609375 -1.5625 -4.328125 C -3.914062 -3.046875 -7.484375 -2.992188 -12.265625 -4.171875 C -16.828125 -5.296875 -19.890625 -7.03125 -21.453125 -9.375 C -23.015625 -11.726562 -23.285156 -14.984375 -22.265625 -19.140625 C -21.191406 -23.484375 -19.476562 -26.296875 -17.125 -27.578125 C -14.78125 -28.859375 -11.222656 -28.910156 -6.453125 -27.734375 Z M -5.1875 -9.875 C -4.4375 -10.0625 -3.84375 -10.460938 -3.40625 -11.078125 C -2.976562 -11.691406 -2.582031 -12.726562 -2.21875 -14.1875 C -1.851562 -15.644531 -1.71875 -16.742188 -1.8125 -17.484375 C -1.914062 -18.234375 -2.257812 -18.867188 -2.84375 -19.390625 C -3.3125 -19.773438 -3.957031 -20.132812 -4.78125 -20.46875 C -5.601562 -20.800781 -6.675781 -21.132812 -8 -21.46875 C -9.363281 -21.800781 -10.492188 -22.007812 -11.390625 -22.09375 C -12.285156 -22.1875 -13.03125 -22.171875 -13.625 -22.046875 C -14.40625 -21.890625 -15.015625 -21.503906 -15.453125 -20.890625 C -15.898438 -20.285156 -16.304688 -19.238281 -16.671875 -17.75 C -17.035156 -16.257812 -17.160156 -15.140625 -17.046875 -14.390625 C -16.941406 -13.648438 -16.582031 -13.03125 -15.96875 -12.53125 C -15.5 -12.132812 -14.847656 -11.769531 -14.015625 -11.4375 C -13.179688 -11.101562 -12.082031 -10.769531 -10.71875 -10.4375 C -9.394531 -10.101562 -8.289062 -9.890625 -7.40625 -9.796875 C -6.519531 -9.710938 -5.78125 -9.738281 -5.1875 -9.875 Z M -5.1875 -9.875 "/></g></g></g><g fill="#000000" fill-opacity="1"><g transform="translate(305.803174, 210.014164)"><g><path d="M -26.640625 -23.28125 L -0.875 -24.203125 L -0.65625 -18.125 L -15.15625 -7.40625 L -0.28125 -7.9375 L -0.078125 -1.96875 L -25.84375 -1.046875 L -26.046875 -7.09375 L -10.984375 -17.875 L -26.421875 -17.328125 Z M -26.640625 -23.28125 "/></g></g></g></svg>