<svg xmlns="http://www.w3.org/2000/svg" xmlns:xlink="http://www.w3.org/1999/xlink" width="300" zoomAndPan="magnify" viewBox="0 0 224.87999 225" height="300" preserveAspectRatio="xMidYMid meet" version="1.0"><defs><clipPath id="024b03423e"><path d="M 6.414062 6.476562 L 218.550781 6.476562 L 218.550781 218.613281 L 6.414062 218.613281 Z M 6.414062 6.476562 " clip-rule="nonzero"/></clipPath></defs><g clip-path="url(#024b03423e)"><path fill="#efb017" d="M 112.484375 218.613281 C 171.0625 218.613281 218.550781 171.125 218.550781 112.542969 C 218.550781 53.964844 171.0625 6.476562 112.484375 6.476562 C 53.902344 6.476562 6.414062 53.964844 6.414062 112.542969 C 6.414062 171.125 53.902344 218.613281 112.484375 218.613281 Z M 112.484375 218.613281 " fill-opacity="1" fill-rule="nonzero"/></g><path fill="#ffffff" d="M 86.734375 101.964844 L 112.484375 76.214844 L 138.246094 101.976562 L 153.226562 86.996094 L 112.484375 46.25 L 71.753906 86.980469 Z M 46.191406 112.542969 L 61.171875 97.5625 L 76.15625 112.542969 L 61.171875 127.527344 Z M 86.734375 123.125 L 112.484375 148.871094 L 138.246094 123.109375 L 153.226562 138.085938 L 112.484375 178.835938 L 71.734375 138.085938 Z M 148.8125 112.542969 L 163.792969 97.5625 L 178.777344 112.542969 L 163.792969 127.527344 Z M 127.675781 112.53125 L 127.691406 112.53125 L 127.691406 112.542969 L 112.484375 127.75 L 97.296875 112.570312 L 97.269531 112.542969 L 97.296875 112.523438 L 99.953125 109.859375 L 101.246094 108.566406 L 112.484375 97.335938 L 127.683594 112.535156 Z M 127.675781 112.53125 " fill-opacity="1" fill-rule="nonzero"/></svg>