<svg xmlns="http://www.w3.org/2000/svg" xmlns:xlink="http://www.w3.org/1999/xlink" width="300" zoomAndPan="magnify" viewBox="0 0 224.87999 225" height="300" preserveAspectRatio="xMidYMid meet" version="1.0"><defs><clipPath id="7d3ce2b356"><path d="M 3 3 L 221 3 L 221 221 L 3 221 Z M 3 3 " clip-rule="nonzero"/></clipPath><clipPath id="3a5eef2c79"><path d="M -19.664062 33.476562 L 190.371094 -19.578125 L 243.425781 190.460938 L 33.390625 243.515625 Z M -19.664062 33.476562 " clip-rule="nonzero"/></clipPath><clipPath id="f7f32a0648"><path d="M -19.664062 33.476562 L 190.371094 -19.578125 L 243.425781 190.460938 L 33.390625 243.515625 Z M -19.664062 33.476562 " clip-rule="nonzero"/></clipPath><clipPath id="f242bcf7ae"><path d="M -19.664062 33.476562 L 190.371094 -19.578125 L 243.425781 190.460938 L 33.390625 243.515625 Z M -19.664062 33.476562 " clip-rule="nonzero"/></clipPath><clipPath id="51de0ff9da"><path d="M -19.664062 33.476562 L 190.371094 -19.578125 L 243.425781 190.460938 L 33.390625 243.515625 Z M -19.664062 33.476562 " clip-rule="nonzero"/></clipPath><clipPath id="0018180f66"><path d="M 66 41 L 170 41 L 170 183 L 66 183 Z M 66 41 " clip-rule="nonzero"/></clipPath><clipPath id="fdbfddb6b3"><path d="M -19.664062 33.476562 L 190.371094 -19.578125 L 243.425781 190.460938 L 33.390625 243.515625 Z M -19.664062 33.476562 " clip-rule="nonzero"/></clipPath><clipPath id="6c6ad5e211"><path d="M -19.664062 33.476562 L 190.371094 -19.578125 L 243.425781 190.460938 L 33.390625 243.515625 Z M -19.664062 33.476562 " clip-rule="nonzero"/></clipPath><clipPath id="dc4754facd"><path d="M -19.664062 33.476562 L 190.371094 -19.578125 L 243.425781 190.460938 L 33.390625 243.515625 Z M -19.664062 33.476562 " clip-rule="nonzero"/></clipPath><clipPath id="d2fac72dd7"><path d="M -19.664062 33.476562 L 190.371094 -19.578125 L 243.425781 190.460938 L 33.390625 243.515625 Z M -19.664062 33.476562 " clip-rule="nonzero"/></clipPath></defs><g clip-path="url(#7d3ce2b356)"><g clip-path="url(#3a5eef2c79)"><g clip-path="url(#f7f32a0648)"><g clip-path="url(#f242bcf7ae)"><g clip-path="url(#51de0ff9da)"><path fill="#f7931a" d="M 216.898438 85.441406 C 222.144531 106.214844 221.117188 128.074219 213.9375 148.257812 C 206.761719 168.441406 193.757812 186.046875 176.578125 198.84375 C 159.394531 211.636719 138.804688 219.050781 117.410156 220.144531 C 96.015625 221.238281 74.777344 215.964844 56.378906 204.988281 C 37.980469 194.007812 23.253906 177.824219 14.054688 158.476562 C 4.855469 139.125 1.601562 117.484375 4.703125 96.289062 C 7.804688 75.089844 17.125 55.289062 31.480469 39.386719 C 45.835938 23.484375 64.582031 12.195312 85.355469 6.949219 C 113.207031 -0.0859375 142.714844 4.230469 167.382812 18.953125 C 192.050781 33.671875 209.863281 57.589844 216.898438 85.441406 Z M 216.898438 85.441406 " fill-opacity="1" fill-rule="nonzero"/></g></g></g></g></g><g clip-path="url(#0018180f66)"><g clip-path="url(#fdbfddb6b3)"><g clip-path="url(#6c6ad5e211)"><g clip-path="url(#dc4754facd)"><g clip-path="url(#d2fac72dd7)"><path fill="#ffffff" d="M 67.089844 62.578125 L 92.855469 62.945312 L 93.171875 41.476562 L 106.066406 41.703125 L 105.75 62.289062 L 116.261719 62.449219 L 116.535156 41.648438 L 129.640625 41.832031 L 129.300781 62.761719 C 129.300781 62.761719 150.46875 62.136719 159.304688 77.25 C 168.140625 92.367188 155.21875 104.738281 150.640625 106.242188 C 150.640625 106.242188 170.640625 111.4375 169.394531 131.910156 C 168.148438 152.386719 150.484375 160.453125 129.898438 161.03125 L 129.742188 182.683594 L 116.636719 182.503906 L 116.976562 161.136719 L 106.570312 160.945312 L 106.261719 182.449219 L 93.253906 182.253906 L 93.59375 160.839844 L 67.128906 160.414062 L 69.871094 144.976562 C 69.871094 144.976562 77.34375 145.117188 80.148438 145.082031 C 82.949219 145.042969 83.957031 141.863281 84.007812 138.925781 C 84.054688 135.988281 83.765625 87.585938 83.875 83.566406 C 83.988281 79.546875 82.816406 76.726562 78.078125 76.695312 C 73.335938 76.664062 66.828125 76.386719 66.828125 76.386719 Z M 106.675781 116.777344 L 106.703125 145.035156 C 106.703125 145.035156 142.863281 148.628906 142.851562 130.726562 C 142.839844 112.824219 106.675781 116.777344 106.675781 116.777344 Z M 106.566406 103.398438 L 106.976562 77.398438 C 106.976562 77.398438 136.632812 75.308594 136.5625 89.738281 C 136.488281 104.167969 118.449219 103.199219 106.566406 103.398438 Z M 106.566406 103.398438 " fill-opacity="1" fill-rule="evenodd"/></g></g></g></g></g></svg>