<svg xmlns="http://www.w3.org/2000/svg" xmlns:xlink="http://www.w3.org/1999/xlink" width="300" zoomAndPan="magnify" viewBox="0 0 224.87999 225" height="300" preserveAspectRatio="xMidYMid meet" version="1.0"><defs><clipPath id="51eafac064"><path d="M 0 0.0585938 L 224.761719 0.0585938 L 224.761719 224.9375 L 0 224.9375 Z M 0 0.0585938 " clip-rule="nonzero"/></clipPath></defs><g clip-path="url(#51eafac064)"><path fill="#ffffff" d="M 112 0.0585938 C 134.238281 0.0585938 155.976562 6.65625 174.46875 19.007812 C 192.960938 31.363281 207.371094 48.925781 215.882812 69.472656 C 224.390625 90.015625 226.617188 112.625 222.28125 134.4375 C 217.941406 156.246094 207.234375 176.28125 191.507812 192.007812 C 175.78125 207.734375 155.746094 218.441406 133.9375 222.777344 C 112.125 227.117188 89.515625 224.890625 68.972656 216.382812 C 48.425781 207.871094 30.863281 193.457031 18.511719 174.96875 C 6.15625 156.476562 -0.441406 134.738281 -0.441406 112.5 C -0.441406 82.679688 11.40625 54.078125 32.492188 32.992188 C 53.578125 11.90625 82.179688 0.0585938 112 0.0585938 Z M 112 0.0585938 " fill-opacity="1" fill-rule="evenodd"/></g><path fill="#343434" d="M 112 24.203125 L 141.582031 68.402344 L 171.164062 112.613281 L 112 142.417969 L 52.835938 112.5 L 82.417969 68.289062 Z M 112 154.328125 L 56.117188 124.511719 L 112 200.796875 L 167.882812 124.511719 Z M 112 154.328125 " fill-opacity="1" fill-rule="evenodd"/><path fill="#343434" d="M 112 24.203125 L 141.582031 68.289062 L 171.164062 112.5 L 112 90.164062 Z M 112 24.203125 " fill-opacity="1" fill-rule="evenodd"/><path fill="#313131" d="M 112 154.328125 L 167.996094 124.511719 L 112 200.910156 Z M 112 154.328125 " fill-opacity="1" fill-rule="evenodd"/><path fill="#151515" d="M 112 90.164062 L 171.164062 112.5 L 112 142.308594 Z M 112 90.164062 " fill-opacity="1" fill-rule="evenodd"/><path fill="#8c8c8c" d="M 112 24.203125 L 82.417969 68.289062 L 52.835938 112.5 L 112 90.164062 Z M 112 24.203125 " fill-opacity="1" fill-rule="evenodd"/><path fill="#8a8a8a" d="M 112 154.328125 L 56.117188 124.511719 L 112 200.910156 Z M 112 154.328125 " fill-opacity="1" fill-rule="evenodd"/><path fill="#353535" d="M 112 90.164062 L 52.835938 112.5 L 112 142.308594 Z M 112 90.164062 " fill-opacity="1" fill-rule="evenodd"/></svg>