<svg xmlns="http://www.w3.org/2000/svg" xmlns:xlink="http://www.w3.org/1999/xlink" width="300" zoomAndPan="magnify" viewBox="0 0 224.87999 225" height="300" preserveAspectRatio="xMidYMid meet" version="1.0"><defs><clipPath id="41a0a048df"><path d="M 4 4.0625 L 220.636719 4.0625 L 220.636719 220.695312 L 4 220.695312 Z M 4 4.0625 " clip-rule="nonzero"/></clipPath></defs><g clip-path="url(#41a0a048df)"><path fill="#345d9d" d="M 112.320312 4.0625 C 83.699219 4.144531 56.277344 15.585938 36.085938 35.867188 C 15.890625 56.152344 4.570312 83.617188 4.613281 112.242188 C 4.65625 140.863281 16.054688 168.296875 36.308594 188.523438 C 56.558594 208.746094 84.011719 220.105469 112.632812 220.105469 C 141.257812 220.105469 168.707031 208.746094 188.960938 188.523438 C 209.214844 168.296875 220.613281 140.863281 220.65625 112.242188 C 220.699219 83.617188 209.378906 56.152344 189.183594 35.867188 C 168.988281 15.585938 141.570312 4.144531 112.949219 4.0625 Z M 112.320312 4.0625 " fill-opacity="1" fill-rule="nonzero"/></g><path fill="#ffffff" d="M 114.289062 114.800781 L 104.746094 146.84375 L 155.519531 146.84375 C 155.855469 146.828125 156.191406 146.878906 156.503906 147 C 156.816406 147.121094 157.105469 147.296875 157.347656 147.523438 C 157.59375 147.757812 157.789062 148.03125 157.929688 148.339844 C 158.078125 148.648438 158.160156 148.984375 158.167969 149.324219 L 158.167969 150.160156 L 153.746094 165.394531 C 153.554688 166.117188 153.121094 166.75 152.515625 167.1875 C 151.914062 167.628906 151.179688 167.851562 150.4375 167.816406 L 72.742188 167.816406 L 85.761719 123.507812 L 71.199219 127.917969 L 74.507812 117.765625 L 89.070312 113.34375 L 107.394531 51.011719 C 107.59375 50.292969 108.03125 49.664062 108.636719 49.230469 C 109.234375 48.789062 109.960938 48.5625 110.703125 48.582031 L 130.398438 48.582031 C 130.734375 48.570312 131.070312 48.628906 131.382812 48.746094 C 131.699219 48.863281 131.992188 49.039062 132.238281 49.269531 C 132.488281 49.5 132.6875 49.777344 132.820312 50.085938 C 132.960938 50.398438 133.039062 50.730469 133.046875 51.070312 L 133.046875 51.917969 L 117.597656 104.453125 L 132.171875 100.03125 L 129.058594 110.605469 Z M 114.289062 114.800781 " fill-opacity="1" fill-rule="nonzero"/></svg>