<svg xmlns="http://www.w3.org/2000/svg" xmlns:xlink="http://www.w3.org/1999/xlink" width="300" zoomAndPan="magnify" viewBox="0 0 224.87999 225" height="300" preserveAspectRatio="xMidYMid meet" version="1.0"><defs><clipPath id="0a7a7322b2"><path d="M 7.835938 7.894531 L 217.722656 7.894531 L 217.722656 217.78125 L 7.835938 217.78125 Z M 7.835938 7.894531 " clip-rule="nonzero"/></clipPath><clipPath id="a74853948e"><path d="M 122.832031 124.03125 L 218 124.03125 L 218 219.230469 L 122.832031 219.230469 Z M 122.832031 124.03125 " clip-rule="nonzero"/></clipPath></defs><g clip-path="url(#0a7a7322b2)"><path fill="#2775c9" d="M 112.777344 217.78125 C 170.738281 217.78125 217.722656 170.796875 217.722656 112.839844 C 217.722656 54.878906 170.738281 7.894531 112.777344 7.894531 C 54.820312 7.894531 7.835938 54.878906 7.835938 112.839844 C 7.835938 170.796875 54.820312 217.78125 112.777344 217.78125 Z M 112.777344 217.78125 " fill-opacity="1" fill-rule="nonzero"/></g><path fill="#ffffff" d="M 111.140625 188.265625 C 68.570312 188.265625 34.070312 153.765625 34.070312 111.199219 C 34.070312 68.632812 68.570312 34.132812 111.140625 34.132812 C 153.707031 34.132812 188.207031 68.632812 188.207031 111.199219 C 188.207031 131.640625 180.089844 151.242188 165.632812 165.695312 C 151.183594 180.148438 131.578125 188.265625 111.140625 188.265625 Z M 106.546875 82.601562 C 102.332031 82.8125 98.34375 84.589844 95.371094 87.585938 C 92.398438 90.582031 90.652344 94.585938 90.480469 98.804688 C 90.480469 106.738281 95.332031 111.921875 105.628906 114.085938 L 112.84375 115.789062 C 119.863281 117.429688 122.75 119.792969 122.75 123.792969 C 122.75 127.792969 117.699219 131.730469 111.140625 131.730469 C 108.808594 131.941406 106.46875 131.496094 104.378906 130.441406 C 102.292969 129.386719 100.542969 127.761719 99.332031 125.761719 C 98.976562 125 98.410156 124.355469 97.703125 123.90625 C 96.992188 123.453125 96.171875 123.207031 95.332031 123.203125 L 91.460938 123.203125 C 91.164062 123.257812 90.882812 123.371094 90.628906 123.535156 C 90.375 123.699219 90.15625 123.914062 89.984375 124.164062 C 89.8125 124.414062 89.695312 124.695312 89.632812 124.992188 C 89.570312 125.289062 89.570312 125.59375 89.625 125.890625 C 90.570312 129.738281 92.761719 133.164062 95.859375 135.632812 C 98.957031 138.101562 102.785156 139.472656 106.746094 139.535156 L 106.746094 145.042969 C 106.746094 146.269531 107.230469 147.445312 108.097656 148.3125 C 108.96875 149.179688 110.140625 149.667969 111.367188 149.667969 C 112.59375 149.667969 113.769531 149.179688 114.636719 148.3125 C 115.503906 147.445312 115.992188 146.269531 115.992188 145.042969 L 115.992188 139.46875 C 120.472656 139.417969 124.753906 137.621094 127.925781 134.460938 C 131.097656 131.296875 132.914062 127.023438 132.980469 122.546875 C 132.980469 114.214844 128.191406 109.429688 116.847656 107 L 110.285156 105.558594 C 103.726562 103.917969 100.644531 101.753906 100.644531 98.082031 C 100.644531 94.410156 104.582031 90.339844 111.140625 90.339844 C 113.203125 90.125 115.289062 90.511719 117.140625 91.457031 C 118.988281 92.398438 120.527344 93.855469 121.570312 95.65625 C 121.988281 96.550781 122.65625 97.3125 123.492188 97.847656 C 124.328125 98.378906 125.300781 98.667969 126.289062 98.671875 L 129.375 98.671875 C 130.074219 98.5 130.679688 98.0625 131.058594 97.449219 C 131.441406 96.835938 131.566406 96.097656 131.40625 95.390625 C 130.519531 91.839844 128.53125 88.660156 125.726562 86.304688 C 122.925781 83.949219 119.449219 82.539062 115.796875 82.273438 L 115.796875 77.75 C 115.796875 76.523438 115.308594 75.347656 114.441406 74.480469 C 113.574219 73.613281 112.398438 73.125 111.171875 73.125 C 109.945312 73.125 108.769531 73.613281 107.902344 74.480469 C 107.035156 75.347656 106.546875 76.523438 106.546875 77.75 Z M 53.355469 111.199219 C 53.363281 123.28125 57.164062 135.054688 64.226562 144.859375 C 71.289062 154.664062 81.25 162 92.707031 165.835938 L 93.625 165.835938 C 94.410156 165.835938 95.160156 165.523438 95.714844 164.972656 C 96.265625 164.417969 96.578125 163.667969 96.578125 162.882812 L 96.578125 161.507812 C 96.582031 160.285156 96.21875 159.09375 95.542969 158.074219 C 94.867188 157.058594 93.902344 156.269531 92.773438 155.800781 C 83.851562 152.199219 76.207031 146.011719 70.828125 138.039062 C 65.445312 130.058594 62.570312 120.65625 62.570312 111.035156 C 62.570312 101.414062 65.445312 92.011719 70.828125 84.035156 C 76.207031 76.058594 83.851562 69.871094 92.773438 66.269531 C 93.898438 65.8125 94.859375 65.035156 95.535156 64.03125 C 96.214844 63.023438 96.578125 61.839844 96.578125 60.628906 L 96.578125 59.121094 C 96.582031 58.679688 96.480469 58.242188 96.277344 57.847656 C 96.078125 57.449219 95.785156 57.109375 95.425781 56.851562 C 95.066406 56.59375 94.648438 56.429688 94.207031 56.367188 C 93.769531 56.304688 93.324219 56.351562 92.90625 56.496094 C 81.402344 60.300781 71.386719 67.636719 64.289062 77.453125 C 57.1875 87.273438 53.363281 99.082031 53.355469 111.199219 Z M 168.925781 111.199219 C 168.902344 99.128906 165.09375 87.367188 158.03125 77.578125 C 150.972656 67.789062 141.015625 60.460938 129.570312 56.628906 L 128.585938 56.628906 C 127.769531 56.628906 126.984375 56.953125 126.40625 57.53125 C 125.828125 58.109375 125.503906 58.894531 125.503906 59.710938 L 125.503906 60.695312 C 125.53125 61.960938 125.921875 63.191406 126.632812 64.238281 C 127.339844 65.285156 128.339844 66.105469 129.503906 66.597656 C 138.40625 70.210938 146.027344 76.398438 151.394531 84.367188 C 156.761719 92.335938 159.628906 101.722656 159.628906 111.332031 C 159.628906 120.9375 156.761719 130.328125 151.394531 138.296875 C 146.027344 146.265625 138.40625 152.449219 129.503906 156.0625 C 128.363281 156.5625 127.382812 157.375 126.6875 158.410156 C 125.992188 159.441406 125.601562 160.652344 125.570312 161.902344 L 125.570312 163.015625 C 125.574219 163.5 125.695312 163.980469 125.921875 164.410156 C 126.148438 164.839844 126.472656 165.214844 126.867188 165.496094 C 127.265625 165.777344 127.722656 165.957031 128.203125 166.03125 C 128.683594 166.101562 129.175781 166.054688 129.636719 165.902344 C 141.089844 162.050781 151.046875 154.699219 158.097656 144.882812 C 165.148438 135.066406 168.933594 123.285156 168.925781 111.199219 Z M 168.925781 111.199219 " fill-opacity="1" fill-rule="nonzero"/><g clip-path="url(#a74853948e)"><path fill="#ffffff" d="M 170.246094 124.03125 C 179.660156 124.03125 188.863281 126.820312 196.691406 132.050781 C 204.519531 137.28125 210.621094 144.714844 214.222656 153.414062 C 217.824219 162.109375 218.769531 171.683594 216.933594 180.914062 C 215.09375 190.148438 210.5625 198.628906 203.90625 205.289062 C 197.25 211.945312 188.765625 216.476562 179.535156 218.3125 C 170.300781 220.152344 160.730469 219.207031 152.03125 215.605469 C 143.332031 212.003906 135.898438 205.902344 130.667969 198.074219 C 125.4375 190.246094 122.648438 181.042969 122.648438 171.628906 C 122.648438 159.003906 127.664062 146.898438 136.589844 137.972656 C 145.515625 129.042969 157.621094 124.03125 170.246094 124.03125 Z M 170.246094 124.03125 " fill-opacity="1" fill-rule="evenodd"/></g><path fill="#343434" d="M 170.246094 134.25 L 182.769531 152.960938 L 195.292969 171.675781 L 170.246094 184.292969 L 145.199219 171.628906 L 157.722656 152.914062 Z M 170.246094 189.335938 L 146.589844 176.714844 L 170.246094 209.007812 L 193.902344 176.714844 Z M 170.246094 189.335938 " fill-opacity="1" fill-rule="evenodd"/><path fill="#343434" d="M 170.246094 134.25 L 182.769531 152.914062 L 195.292969 171.628906 L 170.246094 162.175781 Z M 170.246094 134.25 " fill-opacity="1" fill-rule="evenodd"/><path fill="#313131" d="M 170.246094 189.335938 L 193.953125 176.714844 L 170.246094 209.054688 Z M 170.246094 189.335938 " fill-opacity="1" fill-rule="evenodd"/><path fill="#151515" d="M 170.246094 162.175781 L 195.292969 171.628906 L 170.246094 184.246094 Z M 170.246094 162.175781 " fill-opacity="1" fill-rule="evenodd"/><path fill="#8c8c8c" d="M 170.246094 134.25 L 157.722656 152.914062 L 145.199219 171.628906 L 170.246094 162.175781 Z M 170.246094 134.25 " fill-opacity="1" fill-rule="evenodd"/><path fill="#8a8a8a" d="M 170.246094 189.335938 L 146.589844 176.714844 L 170.246094 209.054688 Z M 170.246094 189.335938 " fill-opacity="1" fill-rule="evenodd"/><path fill="#353535" d="M 170.246094 162.175781 L 145.199219 171.628906 L 170.246094 184.246094 Z M 170.246094 162.175781 " fill-opacity="1" fill-rule="evenodd"/></svg>