<svg xmlns="http://www.w3.org/2000/svg" xmlns:xlink="http://www.w3.org/1999/xlink" width="300" zoomAndPan="magnify" viewBox="0 0 224.87999 225" height="300" preserveAspectRatio="xMidYMid meet" version="1.0"><defs><clipPath id="d61fa89deb"><path d="M 5.109375 5.285156 L 219.496094 5.285156 L 219.496094 219.671875 L 5.109375 219.671875 Z M 5.109375 5.285156 " clip-rule="nonzero"/></clipPath><clipPath id="71e5ee1d7b"><path d="M 136.8125 132.445312 L 215 132.445312 L 215 211 L 136.8125 211 Z M 136.8125 132.445312 " clip-rule="nonzero"/></clipPath><clipPath id="df3483dff9"><path d="M 136.0625 171.5625 C 136.0625 182.132812 140.265625 192.273438 147.738281 199.75 C 155.214844 207.226562 165.355469 211.425781 175.929688 211.425781 C 186.5 211.425781 196.640625 207.226562 204.117188 199.75 C 211.59375 192.273438 215.792969 182.132812 215.792969 171.5625 C 215.792969 160.988281 211.59375 150.847656 204.117188 143.371094 C 196.640625 135.894531 186.5 131.695312 175.929688 131.695312 C 165.355469 131.695312 155.214844 135.894531 147.738281 143.371094 C 140.265625 150.847656 136.0625 160.988281 136.0625 171.5625 Z M 136.0625 171.5625 " clip-rule="nonzero"/></clipPath><clipPath id="33ed04ffcb"><path d="M 175.929688 132.59375 C 186.261719 132.59375 196.175781 136.699219 203.480469 144.007812 C 210.789062 151.316406 214.894531 161.226562 214.894531 171.5625 C 214.894531 181.894531 210.789062 191.804688 203.480469 199.113281 C 196.175781 206.421875 186.261719 210.527344 175.929688 210.527344 C 165.59375 210.527344 155.683594 206.421875 148.375 199.113281 C 141.070312 191.804688 136.964844 181.894531 136.964844 171.5625 C 136.964844 161.226562 141.070312 151.316406 148.375 144.007812 C 155.683594 136.699219 165.59375 132.59375 175.929688 132.59375 Z M 175.929688 132.59375 " clip-rule="nonzero"/></clipPath><clipPath id="bfd73a01ee"><path d="M 154 149 L 200 149 L 200 198 L 154 198 Z M 154 149 " clip-rule="nonzero"/></clipPath><clipPath id="89782d02de"><path d="M 136.0625 171.5625 C 136.0625 182.132812 140.265625 192.273438 147.738281 199.75 C 155.214844 207.226562 165.355469 211.425781 175.929688 211.425781 C 186.5 211.425781 196.640625 207.226562 204.117188 199.75 C 211.59375 192.273438 215.792969 182.132812 215.792969 171.5625 C 215.792969 160.988281 211.59375 150.847656 204.117188 143.371094 C 196.640625 135.894531 186.5 131.695312 175.929688 131.695312 C 165.355469 131.695312 155.214844 135.894531 147.738281 143.371094 C 140.265625 150.847656 136.0625 160.988281 136.0625 171.5625 Z M 136.0625 171.5625 " clip-rule="nonzero"/></clipPath><clipPath id="5d3ddbed28"><path d="M 175.929688 132.59375 C 186.261719 132.59375 196.175781 136.699219 203.480469 144.007812 C 210.789062 151.316406 214.894531 161.226562 214.894531 171.5625 C 214.894531 181.894531 210.789062 191.804688 203.480469 199.113281 C 196.175781 206.421875 186.261719 210.527344 175.929688 210.527344 C 165.59375 210.527344 155.683594 206.421875 148.375 199.113281 C 141.070312 191.804688 136.964844 181.894531 136.964844 171.5625 C 136.964844 161.226562 141.070312 151.316406 148.375 144.007812 C 155.683594 136.699219 165.59375 132.59375 175.929688 132.59375 Z M 175.929688 132.59375 " clip-rule="nonzero"/></clipPath><clipPath id="20915ea26c"><path d="M 136.0625 131.695312 L 215.519531 131.695312 L 215.519531 211.152344 L 136.0625 211.152344 Z M 136.0625 131.695312 " clip-rule="nonzero"/></clipPath><clipPath id="2639c96ada"><path d="M 136.0625 171.5625 C 136.0625 182.132812 140.265625 192.273438 147.738281 199.75 C 155.214844 207.226562 165.355469 211.425781 175.929688 211.425781 C 186.5 211.425781 196.640625 207.226562 204.117188 199.75 C 211.59375 192.273438 215.792969 182.132812 215.792969 171.5625 C 215.792969 160.988281 211.59375 150.847656 204.117188 143.371094 C 196.640625 135.894531 186.5 131.695312 175.929688 131.695312 C 165.355469 131.695312 155.214844 135.894531 147.738281 143.371094 C 140.265625 150.847656 136.0625 160.988281 136.0625 171.5625 Z M 136.0625 171.5625 " clip-rule="nonzero"/></clipPath><clipPath id="f0731f721a"><path d="M 136.0625 171.558594 C 136.0625 182.132812 140.265625 192.269531 147.738281 199.746094 C 155.214844 207.222656 165.355469 211.421875 175.925781 211.421875 C 186.5 211.421875 196.640625 207.222656 204.113281 199.746094 C 211.589844 192.269531 215.789062 182.132812 215.789062 171.558594 C 215.789062 160.988281 211.589844 150.847656 204.113281 143.371094 C 196.640625 135.894531 186.5 131.695312 175.925781 131.695312 C 165.355469 131.695312 155.214844 135.894531 147.738281 143.371094 C 140.265625 150.847656 136.0625 160.988281 136.0625 171.558594 Z M 136.0625 171.558594 " clip-rule="nonzero"/></clipPath></defs><g clip-path="url(#d61fa89deb)"><path fill="#26a17b" d="M 112.304688 219.671875 C 171.503906 219.671875 219.496094 171.679688 219.496094 112.480469 C 219.496094 53.277344 171.503906 5.285156 112.304688 5.285156 C 53.101562 5.285156 5.109375 53.277344 5.109375 112.480469 C 5.109375 171.679688 53.101562 219.671875 112.304688 219.671875 Z M 112.304688 219.671875 " fill-opacity="1" fill-rule="nonzero"/></g><path fill="#ffffff" d="M 125.179688 121.746094 L 125.179688 121.734375 C 124.445312 121.789062 120.644531 122.015625 112.171875 122.015625 C 105.402344 122.015625 100.640625 121.8125 98.964844 121.734375 L 98.964844 121.753906 C 72.917969 120.609375 53.476562 116.070312 53.476562 110.644531 C 53.476562 105.226562 72.917969 100.691406 98.964844 99.523438 L 98.964844 117.238281 C 100.667969 117.359375 105.542969 117.648438 112.285156 117.648438 C 120.371094 117.648438 124.421875 117.3125 125.179688 117.246094 L 125.179688 99.539062 C 151.175781 100.695312 170.570312 105.230469 170.570312 110.644531 C 170.570312 116.070312 151.175781 120.59375 125.179688 121.746094 Z M 125.179688 97.695312 L 125.179688 81.84375 L 161.453125 81.84375 L 161.453125 57.671875 L 62.695312 57.671875 L 62.695312 81.84375 L 98.964844 81.84375 L 98.964844 97.6875 C 69.488281 99.042969 47.320312 104.882812 47.320312 111.878906 C 47.320312 118.871094 69.488281 124.707031 98.964844 126.066406 L 98.964844 176.863281 L 125.179688 176.863281 L 125.179688 126.054688 C 154.613281 124.699219 176.726562 118.867188 176.726562 111.878906 C 176.726562 104.890625 154.613281 99.054688 125.179688 97.695312 Z M 125.179688 97.695312 " fill-opacity="1" fill-rule="evenodd"/><g clip-path="url(#71e5ee1d7b)"><g clip-path="url(#df3483dff9)"><g clip-path="url(#33ed04ffcb)"><path fill="#ef0027" d="M 175.789062 211.152344 C 197.730469 211.152344 215.519531 193.363281 215.519531 171.421875 C 215.519531 149.480469 197.730469 131.695312 175.789062 131.695312 C 153.847656 131.695312 136.0625 149.480469 136.0625 171.421875 C 136.0625 193.363281 153.847656 211.152344 175.789062 211.152344 Z M 175.789062 211.152344 " fill-opacity="1" fill-rule="nonzero"/></g></g></g><g clip-path="url(#bfd73a01ee)"><g clip-path="url(#89782d02de)"><g clip-path="url(#5d3ddbed28)"><path fill="#ffffff" d="M 190.519531 156.308594 L 154.683594 149.710938 L 173.542969 197.167969 L 199.820312 165.152344 Z M 189.945312 159.210938 L 195.425781 164.425781 L 180.433594 167.140625 Z M 177.175781 166.59375 L 161.375 153.488281 L 187.203125 158.242188 Z M 176.050781 168.914062 L 173.472656 190.21875 L 159.582031 155.25 L 176.050781 168.910156 Z M 178.433594 170.042969 L 195.039062 167.039062 L 175.992188 190.238281 Z M 178.433594 170.042969 " fill-opacity="1" fill-rule="nonzero"/></g></g></g><g clip-path="url(#20915ea26c)"><g clip-path="url(#2639c96ada)"><g clip-path="url(#f0731f721a)"><path stroke-linecap="butt" transform="matrix(0.7496, 0, 0, 0.7496, 136.06378, 131.695986)" fill="none" stroke-linejoin="miter" d="M -0.00170731 53.17851 C -0.00170731 67.284993 5.600239 80.807832 15.57431 90.781902 C 25.54838 100.755972 39.076429 106.357919 53.177701 106.357919 C 67.284184 106.357919 80.812234 100.755972 90.781093 90.781902 C 100.755163 80.807832 106.35711 67.284993 106.35711 53.17851 C 106.35711 39.077238 100.755163 25.549189 90.781093 15.575118 C 80.812234 5.601048 67.284184 -0.000898394 53.177701 -0.000898394 C 39.076429 -0.000898394 25.54838 5.601048 15.57431 15.575118 C 5.600239 25.549189 -0.00170731 39.077238 -0.00170731 53.17851 Z M -0.00170731 53.17851 " stroke="#ffffff" stroke-width="16" stroke-opacity="1" stroke-miterlimit="4"/></g></g></g></svg>