<svg xmlns="http://www.w3.org/2000/svg" xmlns:xlink="http://www.w3.org/1999/xlink" width="300" zoomAndPan="magnify" viewBox="0 0 224.87999 225" height="300" preserveAspectRatio="xMidYMid meet" version="1.0"><defs><clipPath id="fd115fa72b"><path d="M 5.109375 5.285156 L 219.496094 5.285156 L 219.496094 219.671875 L 5.109375 219.671875 Z M 5.109375 5.285156 " clip-rule="nonzero"/></clipPath><clipPath id="9f43f2a071"><path d="M 132.214844 128.867188 L 216.167969 128.867188 L 216.167969 212.824219 L 132.214844 212.824219 Z M 132.214844 128.867188 " clip-rule="nonzero"/></clipPath></defs><g clip-path="url(#fd115fa72b)"><path fill="#26a17b" d="M 112.304688 219.671875 C 171.503906 219.671875 219.496094 171.679688 219.496094 112.480469 C 219.496094 53.277344 171.503906 5.285156 112.304688 5.285156 C 53.101562 5.285156 5.109375 53.277344 5.109375 112.480469 C 5.109375 171.679688 53.101562 219.671875 112.304688 219.671875 Z M 112.304688 219.671875 " fill-opacity="1" fill-rule="nonzero"/></g><path fill="#ffffff" d="M 125.179688 121.746094 L 125.179688 121.734375 C 124.445312 121.789062 120.644531 122.015625 112.171875 122.015625 C 105.402344 122.015625 100.640625 121.8125 98.964844 121.734375 L 98.964844 121.753906 C 72.917969 120.609375 53.476562 116.070312 53.476562 110.644531 C 53.476562 105.226562 72.917969 100.691406 98.964844 99.523438 L 98.964844 117.238281 C 100.667969 117.359375 105.542969 117.648438 112.285156 117.648438 C 120.371094 117.648438 124.421875 117.3125 125.179688 117.246094 L 125.179688 99.539062 C 151.175781 100.695312 170.570312 105.230469 170.570312 110.644531 C 170.570312 116.070312 151.175781 120.59375 125.179688 121.746094 Z M 125.179688 97.695312 L 125.179688 81.84375 L 161.453125 81.84375 L 161.453125 57.671875 L 62.695312 57.671875 L 62.695312 81.84375 L 98.964844 81.84375 L 98.964844 97.6875 C 69.488281 99.042969 47.320312 104.882812 47.320312 111.878906 C 47.320312 118.871094 69.488281 124.707031 98.964844 126.066406 L 98.964844 176.863281 L 125.179688 176.863281 L 125.179688 126.054688 C 154.613281 124.699219 176.726562 118.867188 176.726562 111.878906 C 176.726562 104.890625 154.613281 99.054688 125.179688 97.695312 Z M 125.179688 97.695312 " fill-opacity="1" fill-rule="evenodd"/><g clip-path="url(#9f43f2a071)"><path fill="#ffffff" d="M 174.027344 128.867188 C 182.332031 128.867188 190.445312 131.328125 197.351562 135.941406 C 204.253906 140.554688 209.632812 147.109375 212.808594 154.78125 C 215.988281 162.453125 216.820312 170.890625 215.199219 179.035156 C 213.578125 187.175781 209.582031 194.65625 203.710938 200.527344 C 197.839844 206.398438 190.359375 210.394531 182.21875 212.015625 C 174.074219 213.636719 165.632812 212.804688 157.964844 209.628906 C 150.292969 206.449219 143.738281 201.070312 139.125 194.167969 C 134.511719 187.261719 132.050781 179.148438 132.050781 170.84375 C 132.050781 159.710938 136.472656 149.035156 144.34375 141.164062 C 152.21875 133.289062 162.894531 128.867188 174.027344 128.867188 Z M 174.027344 128.867188 " fill-opacity="1" fill-rule="evenodd"/></g><path fill="#343434" d="M 174.027344 137.882812 L 185.070312 154.382812 L 196.117188 170.886719 L 174.027344 182.015625 L 151.941406 170.84375 L 162.984375 154.339844 Z M 174.027344 186.460938 L 153.164062 175.328125 L 174.027344 203.808594 L 194.890625 175.328125 Z M 174.027344 186.460938 " fill-opacity="1" fill-rule="evenodd"/><path fill="#343434" d="M 174.027344 137.882812 L 185.070312 154.339844 L 196.117188 170.84375 L 174.027344 162.507812 Z M 174.027344 137.882812 " fill-opacity="1" fill-rule="evenodd"/><path fill="#313131" d="M 174.027344 186.460938 L 194.933594 175.328125 L 174.027344 203.851562 Z M 174.027344 186.460938 " fill-opacity="1" fill-rule="evenodd"/><path fill="#151515" d="M 174.027344 162.507812 L 196.117188 170.84375 L 174.027344 181.972656 Z M 174.027344 162.507812 " fill-opacity="1" fill-rule="evenodd"/><path fill="#8c8c8c" d="M 174.027344 137.882812 L 162.984375 154.339844 L 151.941406 170.84375 L 174.027344 162.507812 Z M 174.027344 137.882812 " fill-opacity="1" fill-rule="evenodd"/><path fill="#8a8a8a" d="M 174.027344 186.460938 L 153.164062 175.328125 L 174.027344 203.851562 Z M 174.027344 186.460938 " fill-opacity="1" fill-rule="evenodd"/><path fill="#353535" d="M 174.027344 162.507812 L 151.941406 170.84375 L 174.027344 181.972656 Z M 174.027344 162.507812 " fill-opacity="1" fill-rule="evenodd"/></svg>